<svg width="110" height="110" viewBox="0 0 110 110" fill="none" xmlns="http://www.w3.org/2000/svg">
<g clip-path="url(#clip0)">
<path d="M70.6237 85.2966L72.7119 96.9491L48.4746 99.7457L24.2373 96.9491L32.217 62.7186L70.6237 85.2966Z" fill="#2980BA"/>
<path d="M98.3661 78.9017C94.9542 82.3136 75.2661 71.9661 55.6712 53.0424C54.3474 51.756 53.0051 50.4509 51.6813 49.1271C50.339 47.7848 49.0339 46.461 47.7661 45.1373C28.8237 25.5424 18.4949 5.85427 21.9068 2.4424C25.3186 -0.969459 43.1423 11.2238 62.7373 30.1661L70.6423 38.0712C89.5661 57.6661 101.778 75.4899 98.3661 78.9017Z" fill="#9FC9D3"/>
<path d="M67.1373 25.7474L62.7373 30.1661L49.6305 43.2729L52.1978 48.6368L57.5356 51.1779L70.6424 38.0712L75.1915 33.522L72.6522 28.339L67.1373 25.7474Z" fill="#7F8C8D"/>
<path d="M96.9864 37.2518C96.7433 37.2524 96.5025 37.2048 96.278 37.1116C95.3259 36.7202 94.8711 35.6313 95.262 34.6791C96.3801 31.9578 96.9533 29.0437 96.9491 26.1017C96.9408 13.749 86.929 3.73716 74.5763 3.72883C71.6342 3.72495 68.7201 4.2984 65.9989 5.41668C65.0464 5.80796 63.9571 5.35304 63.5658 4.40058C63.1745 3.44812 63.6295 2.35881 64.5819 1.96753C67.7525 0.664076 71.1482 -0.00439524 74.5763 2.17469e-05C88.9896 0.00547512 100.673 11.6884 100.678 26.1017C100.682 29.5295 100.013 32.9247 98.7097 36.0949C98.4235 36.7947 97.7425 37.2519 96.9864 37.2518Z" fill="#E64C3C"/>
<path d="M90.0881 34.3983C89.8471 34.3988 89.6083 34.3518 89.3854 34.26C88.9272 34.0741 88.5617 33.7136 88.3697 33.2579C88.1777 32.8022 88.175 32.2888 88.362 31.831C89.1062 30.0125 89.4898 28.0666 89.4915 26.1017C89.479 17.8694 82.8085 11.199 74.5762 11.1865C72.6112 11.1879 70.6652 11.5713 68.8465 12.3154C68.2255 12.589 67.5047 12.5035 66.9649 12.0922C66.4251 11.6809 66.1514 11.0087 66.2504 10.3373C66.3493 9.66584 66.8054 9.10124 67.441 8.86322C69.7056 7.93596 72.1291 7.45855 74.5762 7.45764C84.8678 7.47048 93.2075 15.8102 93.2203 26.1017C93.2194 28.5488 92.742 30.9723 91.8147 33.237C91.5292 33.9394 90.8464 34.3987 90.0881 34.3983Z" fill="#E64C3C"/>
<path d="M74.5763 33.5593C78.695 33.5593 82.0339 30.2204 82.0339 26.1017C82.0339 21.9829 78.695 18.644 74.5763 18.644C70.4575 18.644 67.1187 21.9829 67.1187 26.1017C67.1187 30.2204 70.4575 33.5593 74.5763 33.5593Z" fill="#BDC3C7"/>
<path d="M98.3661 78.9017C88.1678 89.1 60.1271 90.7593 35.0881 65.7203C10.0305 40.6627 11.7084 12.622 21.9067 2.44238C18.4949 5.85425 30.6881 23.678 49.6305 43.2729C50.8983 44.5966 52.2034 45.9203 53.5457 47.2627C54.8695 48.5864 56.2118 49.8915 57.5356 51.178C77.1305 70.1017 94.9542 82.3136 98.3661 78.9017Z" fill="#3B97D3"/>
<path d="M83.8983 96.9492H13.0508C10.9915 96.9492 9.32202 98.6186 9.32202 100.678V106.271C9.32202 108.331 10.9915 110 13.0508 110H83.8983C85.9577 110 87.6271 108.331 87.6271 106.271V100.678C87.6271 98.6186 85.9577 96.9492 83.8983 96.9492Z" fill="#84B5CB"/>
</g>
<defs>
<clipPath id="clip0">
<rect width="110" height="110" fill="white"/>
</clipPath>
</defs>
</svg>
