<svg width="110" height="110" viewBox="0 0 110 110" fill="none" xmlns="http://www.w3.org/2000/svg">
<path d="M74.9942 46.493L60.8859 32.2403L0 93.1335L14.1797 107.315L74.9942 46.493Z" fill="#F0C838"/>
<path d="M74.9942 46.493L60.8859 32.2403L0 93.1335L14.1797 107.315L74.9942 46.493Z" fill="#F0C838"/>
<path d="M74.9942 46.493L68.4705 39.9027L7.61943 100.754L14.1797 107.315L74.9942 46.493Z" fill="#E79C25"/>
<path d="M110 48.0932L98.8294 36.9213L95.5745 38.5202L90.0984 33.0434L91.697 29.7881C91.697 29.7881 79.5143 17.6039 71.7346 9.8233C59.0906 -2.82219 37.2049 5.1859 37.2049 5.1859C37.2049 5.1859 53.4596 15.143 59.3209 33.8052L73.4308 48.0565L76.6857 46.4576L82.1618 51.9344L80.5632 55.1897L91.7338 66.3616L110 48.0932Z" fill="#6F6F6F"/>
<path d="M110 48.0932L98.8294 36.9213L95.5745 38.5202L90.0984 33.0434L91.697 29.7881C91.697 29.7881 88.9049 26.9958 85.1413 23.2317L66.9064 41.4666L73.4308 48.0562L76.6857 46.4574L82.1618 51.9342L80.5632 55.1895L91.7338 66.3614L110 48.0932Z" fill="#444444"/>
</svg>
