<svg width="110" height="110" viewBox="0 0 110 110" fill="none" xmlns="http://www.w3.org/2000/svg">
<path d="M64.9181 30.3177H45.9837C45.0497 30.3177 44.2931 31.0746 44.2931 32.0083C44.2931 32.942 45.0497 33.6989 45.9837 33.6989H53.3094V47.3361C53.3094 48.2698 54.0661 49.0267 55 49.0267C55.9339 49.0267 56.6906 48.2698 56.6906 47.3361V33.6989H64.9181C65.852 33.6989 66.6087 32.942 66.6087 32.0083C66.6087 31.0746 65.852 30.3177 64.9181 30.3177Z" fill="#666666"/>
<path d="M64.4673 25.8094C61.0493 25.8094 58.2686 28.5901 58.2686 32.0081C58.2686 35.426 61.0496 38.2067 64.4673 38.2067C67.885 38.2067 70.666 35.426 70.666 32.0081C70.666 28.5901 67.885 25.8094 64.4673 25.8094Z" fill="#EB6836"/>
<path d="M45.5327 25.8094C42.1147 25.8094 39.334 28.5901 39.334 32.0081C39.334 35.426 42.115 38.2067 45.5327 38.2067C48.9504 38.2067 51.7314 35.426 51.7314 32.0081C51.7314 28.5901 48.9506 25.8094 45.5327 25.8094Z" fill="#EB6836"/>
<path d="M104.252 0.563538H90.6146C89.6807 0.563538 88.924 1.32043 88.924 2.25414V40.5739C88.924 43.3705 86.6488 45.6457 83.8522 45.6457H26.0348C13.9163 45.6457 4.05731 55.5047 4.05731 67.6232V107.295C4.05731 108.229 4.81399 108.986 5.74792 108.986H19.3851C20.319 108.986 21.0757 108.229 21.0757 107.295V67.6229C21.0757 64.8263 23.3509 62.5511 26.1475 62.5511H83.9652C96.0837 62.5511 105.943 52.6922 105.943 40.5737V2.25414C105.943 1.32043 105.186 0.563538 104.252 0.563538Z" fill="#F7D04A"/>
<path d="M104.252 0.563538H90.6146C89.6807 0.563538 88.924 1.32043 88.924 2.25414V40.5739C88.924 43.3705 86.6488 45.6457 83.8522 45.6457H26.0348C13.9163 45.6457 4.05731 55.5047 4.05731 67.6232V107.295C4.05731 108.229 4.81399 108.986 5.74792 108.986H19.3851C20.319 108.986 21.0757 108.229 21.0757 107.295V67.6229C21.0757 64.8263 23.3509 62.5511 26.1475 62.5511H83.9652C96.0837 62.5511 105.943 52.6922 105.943 40.5737V2.25414C105.943 1.32043 105.186 0.563538 104.252 0.563538Z" fill="#F7D04A"/>
<path d="M47.7868 41.4754H42.3771C41.4431 41.4754 40.6865 42.2323 40.6865 43.166V64.8053C40.6865 65.739 41.4431 66.4959 42.3771 66.4959H47.7868C48.7208 66.4959 49.4774 65.739 49.4774 64.8053V43.166C49.4774 42.2323 48.7208 41.4754 47.7868 41.4754Z" fill="#EB6836"/>
<path d="M67.6229 41.4754H62.2132C61.2792 41.4754 60.5226 42.2323 60.5226 43.166V64.8053C60.5226 65.739 61.2792 66.4959 62.2132 66.4959H67.6229C68.5568 66.4959 69.3135 65.739 69.3135 64.8053V43.166C69.3135 42.2323 68.5568 41.4754 67.6229 41.4754Z" fill="#EB6836"/>
<path d="M108.309 7.32574H86.6701C85.7362 7.32574 84.9795 8.08264 84.9795 9.01635V14.4261C84.9795 15.3598 85.7362 16.1167 86.6701 16.1167H108.309C109.243 16.1167 110 15.3598 110 14.4261V9.01635C110 8.08285 109.243 7.32574 108.309 7.32574Z" fill="#EB6836"/>
<path d="M23.3299 93.4323H1.69061C0.75668 93.4323 0 94.1892 0 95.1229V100.533C0 101.466 0.75668 102.223 1.69061 102.223H23.3299C24.2638 102.223 25.0205 101.466 25.0205 100.533V95.1229C25.0205 94.1892 24.2638 93.4323 23.3299 93.4323Z" fill="#EB6836"/>
<path d="M49.4774 43.166C49.4774 42.2323 48.7208 41.4754 47.7868 41.4754H42.3771C41.4431 41.4754 40.6865 42.2323 40.6865 43.166V45.6455H49.4774V43.166Z" fill="#FD9D7E"/>
<path d="M40.6865 64.8053C40.6865 65.739 41.4431 66.4959 42.3771 66.4959H47.7868C48.7208 66.4959 49.4774 65.739 49.4774 64.8053V62.5511H40.6865V64.8053Z" fill="#FD9D7E"/>
<path d="M60.5226 64.8053C60.5226 65.739 61.2792 66.4959 62.2132 66.4959H67.6229C68.5568 66.4959 69.3135 65.739 69.3135 64.8053V62.5511H60.5226V64.8053Z" fill="#FD9D7E"/>
<path d="M69.3135 43.166C69.3135 42.2323 68.5568 41.4754 67.6229 41.4754H62.2132C61.2792 41.4754 60.5226 42.2323 60.5226 43.166V45.6455H69.3135V43.166Z" fill="#FD9D7E"/>
<path d="M86.6701 7.32574C85.7362 7.32574 84.9795 8.08264 84.9795 9.01635V14.4261C84.9795 15.3598 85.7362 16.1167 86.6701 16.1167H88.9242V7.32574H86.6701Z" fill="#FD9D7E"/>
<path d="M108.309 7.32574H105.943V16.1167H108.309C109.243 16.1167 110 15.3598 110 14.4261V9.01635C110 8.08285 109.243 7.32574 108.309 7.32574Z" fill="#FD9D7E"/>
<path d="M1.69061 93.4323C0.75668 93.4323 0 94.1892 0 95.1229V100.533C0 101.466 0.75668 102.223 1.69061 102.223H4.05732V93.4323H1.69061Z" fill="#FD9D7E"/>
<path d="M23.3299 102.223C24.2638 102.223 25.0205 101.466 25.0205 100.533V95.1229C25.0205 94.1892 24.2638 93.4323 23.3299 93.4323H21.0757V102.223H23.3299Z" fill="#FD9D7E"/>
<path d="M56.3686 68.4337C55.7047 67.5185 54.2955 67.5185 53.6315 68.4337C52.2605 70.3239 40.2357 87.1211 40.2357 94.6722C40.2357 102.813 46.8589 109.436 55 109.436C63.1411 109.436 69.7643 102.813 69.7643 94.6722C69.7643 87.1211 57.7397 70.3239 56.3686 68.4337Z" fill="#62C9CC"/>
<path d="M59.8462 105.492C51.7052 105.492 45.082 98.8685 45.082 90.7274C45.082 84.9765 52.056 73.8641 55.987 68.0569C55.2404 67.5189 54.1716 67.6891 53.6312 68.4337C52.2603 70.3239 40.2355 87.121 40.2355 94.6722C40.2355 102.813 46.8587 109.436 54.9998 109.436C59.6557 109.436 63.8123 107.268 66.5204 103.891C64.5144 104.912 62.2473 105.492 59.8462 105.492Z" fill="#50A9A9"/>
<path d="M56.8032 103.689C59.044 103.689 60.8605 101.872 60.8605 99.6312C60.8605 97.3904 59.044 95.5739 56.8032 95.5739C54.5624 95.5739 52.7458 97.3904 52.7458 99.6312C52.7458 101.872 54.5624 103.689 56.8032 103.689Z" fill="#D4F2E8"/>
<path d="M60.4097 93.3195C61.9036 93.3195 63.1146 92.1085 63.1146 90.6147C63.1146 89.1208 61.9036 87.9098 60.4097 87.9098C58.9159 87.9098 57.7049 89.1208 57.7049 90.6147C57.7049 92.1085 58.9159 93.3195 60.4097 93.3195Z" fill="#D4F2E8"/>
</svg>
