<svg width="110" height="110" viewBox="0 0 110 110" fill="none" xmlns="http://www.w3.org/2000/svg">
<g clip-path="url(#clip0)">
<path d="M18.1006 3.3812L30.0265 15.307C31.5408 16.8212 31.5408 19.276 30.0265 20.7902L21.1612 29.6555C19.647 31.1697 17.1922 31.1697 15.678 29.6555L3.75201 17.7298C2.93518 16.9129 1.54578 17.2906 1.2435 18.4054C-1.02053 26.7556 1.12061 36.0499 7.67678 42.6061C14.8117 49.7408 25.1891 51.6465 34.0637 48.3368L85.6765 104.777C90.976 110.572 100.039 110.774 105.592 105.221C111.172 99.6422 110.937 90.527 105.078 85.2422L48.5091 34.2194C52.0953 25.2319 50.2532 14.5821 42.9771 7.30575C36.4209 0.749575 27.1264 -1.39156 18.7763 0.872465C17.6614 1.17475 17.2837 2.56436 18.1006 3.3812ZM99.6823 95.3807C99.6823 97.6611 97.8338 99.5096 95.5535 99.5096C93.2731 99.5096 91.4246 97.6611 91.4246 95.3807C91.4246 93.1004 93.2731 91.2519 95.5535 91.2519C97.8338 91.2519 99.6823 93.1004 99.6823 95.3807Z" fill="#605F6D"/>
<path d="M43.8094 29.0185L48.7803 33.5021C51.992 24.6701 50.0608 14.3896 42.9771 7.30579C42.4454 6.77405 41.8937 6.27497 41.328 5.80145C46.0004 12.7175 46.8269 21.4563 43.8094 29.0185Z" fill="#53515E"/>
<path d="M80.9387 99.5956L85.6767 104.777C90.9762 110.572 100.039 110.774 105.592 105.221C111.172 99.642 110.937 90.5266 105.078 85.2421L103.155 83.5079C106.106 88.7402 105.387 95.5269 100.893 100.021C95.3397 105.573 86.2383 105.391 80.9387 99.5956Z" fill="#53515E"/>
<path d="M34.0639 48.3367L29.3642 43.1359C21.152 46.1988 11.6548 44.792 4.62878 38.9117C5.50878 40.2141 6.52371 41.4529 7.67677 42.6059C14.8117 49.7409 25.1893 51.6465 34.0639 48.3367Z" fill="#53515E"/>
<path d="M65.7086 49.7327L61.3209 54.1205L58.3818 51.1814C56.5606 49.3602 53.6078 49.3602 51.7865 51.1814L47.7707 55.1973C48.7819 57.802 48.7779 60.71 47.7576 63.3117L57.4672 73.9295C59.5903 72.9399 61.9607 72.6557 64.226 73.0772C65.5737 73.3281 66.9584 72.9013 67.9275 71.9319L70.2322 69.6273C72.0534 67.806 72.0534 64.8534 70.2322 63.0322C68.609 61.409 68.609 58.7772 70.2322 57.1541L71.9885 55.3975L65.7086 49.7327Z" fill="#53515E"/>
<path d="M109.044 13.6823L101.497 6.13548C100.771 5.40952 99.5496 5.59407 99.0705 6.502L95.0078 14.1992L57.8828 51.3238L63.8553 57.2962L100.98 20.1717L108.677 16.1087C109.585 15.6296 109.77 14.4083 109.044 13.6823Z" fill="#E9EBF2"/>
<path d="M109.044 13.6823L107.139 11.7771C107.272 12.4133 106.992 13.1076 106.359 13.4415L98.6619 17.5044L61.5371 54.629L58.0575 51.1494L57.8831 51.3238L63.8555 57.2963L100.98 20.1717L108.677 16.1088C109.585 15.6297 109.77 14.4083 109.044 13.6823Z" fill="#C7CAD3"/>
<path d="M51.2407 72.9731C54.4627 69.7511 59.166 68.918 63.1574 70.4676L67.1733 66.4518C68.9945 64.6305 68.9945 61.6777 67.1733 59.8565L55.3227 48.0059C53.5015 46.1847 50.5486 46.1847 48.7276 48.0059L44.7118 52.0218C46.2614 56.0132 45.4281 60.7165 42.2063 63.9385C38.9845 67.1605 34.2809 67.9937 30.2895 66.444L8.9998 87.7338C3.90607 92.8275 3.90607 101.086 8.9998 106.18C14.0935 111.273 22.3519 111.273 27.4456 106.18L48.7354 84.8899C47.1853 80.8987 48.0187 76.1952 51.2407 72.9731Z" fill="#FFDC64"/>
<path d="M67.1732 59.8565L64.371 57.0543C64.7636 58.5965 64.3616 60.2991 63.1548 61.5059L59.1389 65.5217C55.1478 63.9721 50.4442 64.8054 47.2222 68.0272C44.0002 71.2493 43.1668 75.9526 44.7167 79.944L23.427 101.234C18.7797 105.881 11.4995 106.286 6.3905 102.453C7.0172 103.803 7.88689 105.067 8.99978 106.18C14.0935 111.273 22.3519 111.273 27.4456 106.18L48.7353 84.8899C47.1857 80.8985 48.0191 76.1952 51.2409 72.9732C54.4629 69.7512 59.1662 68.918 63.1576 70.4677L67.1735 66.4518C68.9945 64.6306 68.9945 61.6778 67.1732 59.8565Z" fill="#FFC850"/>
<path d="M16.5385 94.4423C16.0935 94.4423 15.6486 94.2726 15.3089 93.9331C14.63 93.254 14.63 92.1531 15.3089 91.474L31.7804 75.0026C32.4595 74.3239 33.5603 74.3239 34.2395 75.0026C34.9184 75.6817 34.9184 76.7826 34.2395 77.4617L17.768 93.9331C17.4284 94.2726 16.9832 94.4423 16.5385 94.4423Z" fill="#FF6B5C"/>
<path d="M22.6244 100.528C22.1794 100.528 21.7345 100.358 21.3948 100.019C20.7159 99.3399 20.7159 98.239 21.3948 97.5599L37.8662 81.0885C38.5453 80.4098 39.6462 80.4098 40.3253 81.0885C41.0042 81.7676 41.0042 82.8685 40.3253 83.5476L23.8539 100.019C23.5142 100.358 23.0691 100.528 22.6244 100.528Z" fill="#FF6B5C"/>
</g>
<defs>
<clipPath id="clip0">
<rect width="110" height="110" fill="white"/>
</clipPath>
</defs>
</svg>
