<svg width="110" height="110" viewBox="0 0 110 110" fill="none" xmlns="http://www.w3.org/2000/svg">
<g clip-path="url(#clip0)">
<path d="M6.70621 60.6897C3.00248 60.6897 0 57.6872 0 53.9834C0.000237069 52.205 0.707177 50.4995 1.96483 49.2421L49.2421 1.96483C50.4995 0.707177 52.205 0.000237069 53.9834 0C57.6872 0 60.6897 3.00248 60.6897 6.70621C60.6894 8.4847 59.9825 10.1902 58.7248 11.4476L11.4476 58.7248C10.1902 59.9825 8.4847 60.6894 6.70621 60.6897Z" fill="#B3B3B3"/>
<path d="M13.2759 56.8966L56.8966 13.2759L82.5285 38.9078C91.4164 47.7952 91.4169 62.2052 82.5294 71.0932C82.5292 71.0934 82.5289 71.0937 82.5285 71.0941L71.0942 82.5285C62.2067 91.4164 47.7967 91.4169 38.9087 82.5294C38.9085 82.5292 38.9083 82.5289 38.9078 82.5285L13.2759 56.8966Z" fill="#E6E6E6"/>
<path d="M70.1724 83.4483L83.4483 70.1724L90.2493 76.9734C91.73 78.4547 91.73 80.8557 90.2493 82.3369L82.3369 90.2493C80.8557 91.73 78.4547 91.73 76.9735 90.2493L70.1724 83.4483Z" fill="#B3B3B3"/>
<path d="M83.4483 89.1379L89.138 83.4482L110 104.31V110H104.31L83.4483 89.1379Z" fill="#808080"/>
<path d="M13.2759 37.931L1.17776 25.8329C0.423405 25.0783 -0.000236969 24.0551 9.94437e-08 22.9881C9.94437e-08 20.7665 1.80101 18.9655 4.02259 18.9655C5.08963 18.9653 6.11282 19.3889 6.86741 20.1433L18.9655 32.2414L13.2759 37.931Z" fill="#E6E6E6"/>
<path d="M37.931 13.2759L25.8329 1.17776C25.0783 0.423405 24.0551 -0.000236969 22.9881 9.94437e-08C20.7665 9.94437e-08 18.9655 1.80101 18.9655 4.02259C18.9653 5.08963 19.3889 6.11282 20.1433 6.86741L32.2414 18.9655L37.931 13.2759Z" fill="#E6E6E6"/>
<path d="M66.3793 68.2759L60.6896 37.931L53.1034 45.5172L49.3103 36.0345L39.8276 45.5172L47.4138 64.4828L55 56.8966L66.3793 68.2759Z" fill="#FDB62F"/>
</g>
<defs>
<clipPath id="clip0">
<rect width="110" height="110" fill="white"/>
</clipPath>
</defs>
</svg>
