<svg width="110" height="110" viewBox="0 0 110 110" fill="none" xmlns="http://www.w3.org/2000/svg">
<path d="M72.1875 75.625H82.5V91.0938H72.1875V75.625Z" fill="#FF9201"/>
<path d="M82.5 44.6875H104.844V60.1562H82.5V44.6875Z" fill="#FF9201"/>
<path d="M3.4375 44.6875H68.4445V76.7708H71.9583V82.118C71.9516 83.0567 72.318 83.9596 72.977 84.6282C73.636 85.2967 74.5335 85.6761 75.4722 85.6829C77.3496 85.6965 79.1447 86.4552 80.4626 87.7923C81.7806 89.1293 82.5134 90.9351 82.5 92.8125H3.4375V44.6875Z" fill="#D9D9D9"/>
<path d="M82.5 75.625H106.562V92.8125H82.5V75.625Z" fill="#D47A05"/>
<path d="M5.15625 13.75H27.5V29.2188H5.15625V13.75Z" fill="#FF9201"/>
<path d="M27.5 13.75H55V29.2188H27.5V13.75Z" fill="#D47A05"/>
<path d="M55 13.75H82.5V29.2188H55V13.75Z" fill="#FF9201"/>
<path d="M82.5 13.75H104.844V29.2188H82.5V13.75Z" fill="#D47A05"/>
<path d="M68.75 60.1562H96.25V75.625H68.75V60.1562Z" fill="#FF9201"/>
<path d="M96.25 60.1562H104.844V75.625H96.25V60.1562Z" fill="#D47A05"/>
<path d="M55 44.6875H82.5V60.1562H55V44.6875Z" fill="#D47A05"/>
<path d="M13.75 29.2188H41.25V44.6875H13.75V29.2188Z" fill="#D47A05"/>
<path d="M41.25 29.2188H68.75V44.6875H41.25V29.2188Z" fill="#FF9201"/>
<path d="M68.75 29.2188H96.25V44.6875H68.75V29.2188Z" fill="#D47A05"/>
<path d="M5.15625 29.2188H13.75V44.6875H5.15625V29.2188Z" fill="#FF9201"/>
<path d="M96.25 29.2188H104.844V44.6875H96.25V29.2188Z" fill="#FF9201"/>
<path d="M82.5 12.0312H3.4375V44.6875C3.4375 45.1433 3.61858 45.5805 3.94091 45.9028C4.26324 46.2252 4.70041 46.4062 5.15625 46.4062H80.7812V58.4375H68.75C68.2942 58.4375 67.857 58.6186 67.5347 58.9409C67.2123 59.2632 67.0312 59.7004 67.0312 60.1562V75.625C67.0312 76.0808 67.2123 76.518 67.5347 76.8403C67.857 77.1627 68.2942 77.3438 68.75 77.3438H70.4688V91.0938C70.4688 91.5496 70.6498 91.9868 70.9722 92.3091C71.2945 92.6314 71.7317 92.8125 72.1875 92.8125H84.2188V77.3438H106.562V12.0312H82.5ZM97.9688 30.9375H103.125V42.9688H97.9688V30.9375ZM103.125 27.5H84.2188V15.4688H103.125V27.5ZM80.7812 27.5H56.7188V15.4688H80.7812V27.5ZM53.2812 27.5H29.2188V15.4688H53.2812V27.5ZM6.875 15.4688H25.7812V27.5H6.875V15.4688ZM6.875 30.9375H12.0312V42.9688H6.875V30.9375ZM15.4688 30.9375H39.5312V42.9688H15.4688V30.9375ZM42.9688 30.9375H67.0312V42.9688H42.9688V30.9375ZM70.4688 30.9375H94.5312V42.9688H70.4688V30.9375ZM84.2188 46.4062H103.125V58.4375H84.2188V46.4062ZM70.4688 61.875H94.5312V73.9062H70.4688V61.875ZM80.7812 89.375H73.9062V77.3438H80.7812V89.375ZM103.125 73.9062H97.9688V61.875H103.125V73.9062Z" fill="#D9D9D9"/>
<path d="M44.6875 39.5312C43.32 39.5313 42.0085 40.0745 41.0415 41.0415C40.0745 42.0085 39.5312 43.32 39.5312 44.6875C39.5312 46.055 40.0745 47.3665 41.0415 48.3335C42.0085 49.3005 43.32 49.8438 44.6875 49.8438H36.0938C34.7262 49.8438 33.4147 50.387 32.4477 51.354C31.4807 52.321 30.9375 53.6325 30.9375 55C30.9375 56.3675 31.4807 57.679 32.4477 58.646C33.4147 59.613 34.7262 60.1563 36.0938 60.1563H39.8471C39.5606 60.9322 39.4669 61.7661 39.574 62.5863C39.6812 63.4065 39.9859 64.1884 40.4621 64.8647C40.9383 65.541 41.5716 66.0916 42.3077 66.469C43.0437 66.8464 43.8604 67.0393 44.6875 67.0313H67.0312V39.5312H44.6875Z" fill="#C3C3C3"/>
<path d="M48.125 39.5312C46.7575 39.5313 45.446 40.0745 44.479 41.0415C43.512 42.0085 42.9688 43.32 42.9688 44.6875C42.9688 46.055 43.512 47.3665 44.479 48.3335C45.446 49.3005 46.7575 49.8438 48.125 49.8438H39.5312C38.1637 49.8438 36.8522 50.387 35.8852 51.354C34.9182 52.321 34.375 53.6325 34.375 55C34.375 56.3675 34.9182 57.679 35.8852 58.646C36.8522 59.613 38.1637 60.1563 39.5312 60.1563H43.2846C42.9981 60.9322 42.9044 61.7661 43.0115 62.5863C43.1187 63.4065 43.4234 64.1884 43.8996 64.8647C44.3758 65.541 45.0091 66.0916 45.7452 66.469C46.4812 66.8464 47.2979 67.0393 48.125 67.0313H68.75V39.5312H48.125Z" fill="#EBEBEB"/>
<path d="M60.1562 61.875H53.2812C52.8254 61.875 52.3882 61.6939 52.0659 61.3716C51.7436 61.0493 51.5625 60.6121 51.5625 60.1562C51.5625 59.7004 51.7436 59.2632 52.0659 58.9409C52.3882 58.6186 52.8254 58.4375 53.2812 58.4375H60.1562C60.6121 58.4375 61.0493 58.6186 61.3716 58.9409C61.6939 59.2632 61.875 59.7004 61.875 60.1562C61.875 60.6121 61.6939 61.0493 61.3716 61.3716C61.0493 61.6939 60.6121 61.875 60.1562 61.875Z" fill="#F8F8F8"/>
<path d="M46.4063 61.875H41.5656C41.1098 61.875 40.6726 61.6939 40.3503 61.3716C40.0279 61.0493 39.8469 60.6121 39.8469 60.1562C39.8469 59.7004 40.0279 59.2632 40.3503 58.9409C40.6726 58.6186 41.1098 58.4375 41.5656 58.4375H46.4063C46.8621 58.4375 47.2993 58.6186 47.6216 58.9409C47.9439 59.2632 48.125 59.7004 48.125 60.1562C48.125 60.6121 47.9439 61.0493 47.6216 61.3716C47.2993 61.6939 46.8621 61.875 46.4063 61.875Z" fill="#F8F8F8"/>
<path d="M58.4375 51.5625H53.2812C52.8254 51.5625 52.3882 51.3814 52.0659 51.0591C51.7436 50.7368 51.5625 50.2996 51.5625 49.8438C51.5625 49.3879 51.7436 48.9507 52.0659 48.6284C52.3882 48.3061 52.8254 48.125 53.2812 48.125H58.4375C58.8933 48.125 59.3305 48.3061 59.6528 48.6284C59.9752 48.9507 60.1562 49.3879 60.1562 49.8438C60.1562 50.2996 59.9752 50.7368 59.6528 51.0591C59.3305 51.3814 58.8933 51.5625 58.4375 51.5625Z" fill="#F8F8F8"/>
<path d="M68.75 39.5312L56.7188 58.4375L65.3125 72.1875H72.1875L80.7812 58.4375L68.75 39.5312Z" fill="#B9B9B9"/>
<path d="M70.4688 42.2321L60.1562 58.4375L68.75 72.1875H72.1875L80.7812 58.4375L70.4688 42.2321Z" fill="#A8A8A8"/>
<path d="M68.75 94.5312C67.8383 94.5312 66.964 94.1691 66.3193 93.5244C65.6747 92.8798 65.3125 92.0054 65.3125 91.0938V80.7812H72.1875V91.0938C72.1875 92.0054 71.8253 92.8798 71.1807 93.5244C70.536 94.1691 69.6617 94.5312 68.75 94.5312Z" fill="#8E7760"/>
<path d="M69.6094 94.4096C70.3459 94.2209 70.9988 93.7928 71.4655 93.1926C71.9322 92.5924 72.1861 91.8541 72.1875 91.0937V80.7812H67.0312V91.0937C67.0326 91.8541 67.2866 92.5924 67.7533 93.1926C68.2199 93.7928 68.8729 94.2209 69.6094 94.4096Z" fill="#74624F"/>
<path d="M72.1875 80.7812H65.3125V70.4688C65.3125 69.5571 65.6747 68.6827 66.3193 68.0381C66.964 67.3934 67.8383 67.0312 68.75 67.0312C69.6617 67.0312 70.536 67.3934 71.1807 68.0381C71.8253 68.6827 72.1875 69.5571 72.1875 70.4688V80.7812Z" fill="#CDCDCD"/>
<path d="M69.6094 67.1528C68.8729 67.3415 68.2199 67.7697 67.7533 68.3699C67.2866 68.9701 67.0326 69.7084 67.0312 70.4687V80.7812H72.1875V70.4687C72.1861 69.7084 71.9322 68.9701 71.4655 68.3699C70.9988 67.7697 70.3459 67.3415 69.6094 67.1528Z" fill="#B9B9B9"/>
</svg>
