<svg width="110" height="110" viewBox="0 0 110 110" fill="none" xmlns="http://www.w3.org/2000/svg">
<path d="M63.3242 86.9417C62.6358 87.6301 61.1733 87.802 60.2269 86.8557C51.5371 77.9938 38.8894 79.3703 32.7807 85.565C28.7368 89.6949 26.4999 96.3199 23.5745 100.364C22.0259 102.601 20.0469 104.838 17.8959 106.989C17.8959 106.989 15.3149 109.914 10.5827 109.914C4.7322 109.914 0 105.182 0 99.3311C0 94.771 2.92535 92.0178 2.92535 92.0178L3.01142 91.9317L3.09749 91.8456C5.16234 89.7808 7.31327 87.8879 9.46441 86.3392C13.5083 83.4139 20.0471 81.1769 24.0909 77.0472C30.1996 70.8524 31.5763 58.1188 22.8864 49.343C22.4562 48.9128 22.198 48.2245 22.2841 47.7083C22.2841 47.106 22.6282 46.5037 22.9724 46.1596L34.0713 34.9747L74.3372 75.6707C74.337 75.6707 63.3242 86.9417 63.3242 86.9417Z" fill="#415661"/>
<path d="M23.0583 46.1594C22.7142 46.5035 22.456 47.1057 22.3699 47.708C22.3699 48.3103 22.5421 48.9126 22.9722 49.3427C31.662 58.1186 30.3715 70.8524 24.1768 77.0469C20.1329 81.1769 13.508 83.4139 9.55025 86.339C7.39933 87.8876 5.24841 89.7806 3.18334 91.8454L3.09727 91.9315L3.0112 92.0176C4.04362 90.9851 0.0858459 94.2545 0.0858459 99.3308C0.0858459 102.256 1.29041 104.837 3.18312 106.816L53.4294 56.656L36.738 37.5555L34.157 34.9744C34.1572 34.9744 23.0583 46.1594 23.0583 46.1594Z" fill="#3A4D57"/>
<path d="M72.1861 1.07548L109.01 37.8137C110.215 39.0183 110.215 40.911 109.01 42.1156L85.1779 65.9483C83.9733 67.1528 82.0806 67.1528 80.8761 65.9483L43.9657 29.21C42.7611 28.0055 42.7611 26.1128 43.9657 24.9082L67.8842 1.07548C69.0027 -0.129084 70.9815 -0.129084 72.1861 1.07548Z" fill="#F4F0D3"/>
<path d="M43.7935 25.1662L86.8987 64.1414L71.1537 79.026L28.9948 40.1368L43.7935 25.1662Z" fill="#D3D5D6"/>
<path d="M43.7935 25.1662L65.5612 44.7829L50.3324 59.8396L28.9948 40.2229L43.7935 25.1662Z" fill="#C8CACB"/>
<path d="M60.7429 56.6562C59.3662 58.0329 59.3662 60.1838 60.7429 61.5603C62.1196 62.937 64.2705 62.937 65.647 61.5603C67.0237 60.1836 67.0237 58.0327 65.647 56.6562C64.3566 55.3656 62.1196 55.3656 60.7429 56.6562ZM73.4767 64.3996C72.1 63.0229 69.9491 63.0229 68.5726 64.3996C67.1959 65.7763 67.1959 67.9272 68.5726 69.3037C69.9493 70.6804 72.1002 70.6804 73.4767 69.3037C74.7671 67.9272 74.7671 65.7761 73.4767 64.3996Z" fill="#BDBFC0"/>
<path d="M105.913 34.7165C105.311 34.1142 104.364 34.1142 103.762 34.7165L85.1779 53.2147C84.5756 53.817 84.5756 54.7633 85.1779 55.3656C85.7802 55.9679 86.7265 55.9679 87.3288 55.3656L105.913 36.8674C106.515 36.2651 106.515 35.3187 105.913 34.7165ZM100.751 29.5541C100.148 28.9518 99.2021 28.9518 98.5998 29.5541L80.0155 48.0523C79.4132 48.6546 79.4132 49.601 80.0155 50.2033C80.6178 50.8055 81.5642 50.8055 82.1664 50.2033L100.751 31.705C101.353 31.1027 101.353 30.1564 100.751 29.5541ZM90.34 19.2296C89.7377 18.6274 88.7914 18.6274 88.1891 19.2296L69.6048 37.6418C69.0025 38.2441 69.0025 39.1904 69.6048 39.7927C70.2071 40.395 71.1534 40.395 71.7557 39.7927L90.34 21.3806C90.9423 20.7783 90.9423 19.8319 90.34 19.2296ZM85.1779 14.0673C84.5756 13.465 83.6292 13.465 83.027 14.0673L64.4426 32.4795C63.8404 33.0817 63.8404 34.0281 64.4426 34.6304C65.0449 35.2327 65.9913 35.2327 66.5936 34.6304L85.1779 16.2182C85.7802 15.6159 85.7802 14.6696 85.1779 14.0673ZM79.9295 8.81889C79.3272 8.21661 78.3808 8.21661 77.7785 8.81889L59.2803 27.3171C58.678 27.9194 58.678 28.8658 59.2803 29.468C59.8826 30.0703 60.8289 30.0703 61.4312 29.468L79.9295 11.0559C80.5317 10.4536 80.5317 9.42117 79.9295 8.81889ZM74.7671 3.65655C74.1648 3.05426 73.2185 3.05426 72.6162 3.65655L54.0319 22.1548C53.4296 22.7571 53.4296 23.7034 54.0319 24.3057C54.6342 24.908 55.5805 24.908 56.1828 24.3057L74.7671 5.80747C75.3694 5.2054 75.3694 4.25883 74.7671 3.65655Z" fill="#E8E4C8"/>
<path d="M109.096 37.7278L72.1861 0.989364C70.9815 -0.215205 69.0888 -0.215205 67.8842 0.989364L65.2171 3.6565L81.5644 19.8317C82.855 22.2408 82.5108 25.252 80.1877 27.3171L78.1228 29.7262C76.7461 30.9308 76.7461 32.9956 78.1228 34.2002C79.4996 35.4048 81.8224 35.3187 82.9409 34.0281L76.574 40.2228C75.2834 41.4274 75.2834 43.4062 76.574 44.6107C77.8646 45.8153 79.8434 45.8153 81.1341 44.6107L84.0594 41.6854C82.8548 42.89 82.8548 44.8687 84.0594 46.0733C85.264 47.2779 87.1567 47.2779 88.3612 46.0733L93.6955 40.4808C96.1046 37.9856 100.062 37.9856 102.557 40.4808L106.601 44.4386L109.096 41.9436C110.301 40.9112 110.301 38.9322 109.096 37.7278Z" fill="#E2574C"/>
<path d="M44.912 36.0071C46.2887 37.3838 46.2887 39.5347 44.912 40.9112C43.5353 42.2879 41.3844 42.2879 40.0079 40.9112C38.6312 39.5345 38.6312 37.3836 40.0079 36.0071C41.3844 34.6304 43.5353 34.6304 44.912 36.0071ZM52.6554 43.7505C54.0321 45.1272 54.0321 47.2781 52.6554 48.6546C51.2787 50.0313 49.1278 50.0313 47.7513 48.6546C46.3746 47.2779 46.3746 45.127 47.7513 43.7505C49.1278 42.3738 51.3648 42.3738 52.6554 43.7505Z" fill="#B4B5B6"/>
<path d="M80.2736 27.2311L78.2087 29.6402C76.832 30.8448 76.832 32.8235 78.2087 34.1142C79.4993 35.2327 81.5642 35.2327 82.7688 34.2002L84.7475 32.3073C83.543 33.5119 81.306 33.684 79.9295 32.4795C78.5528 31.2749 78.5528 29.2961 79.9295 28.0055L81.9943 25.5963C84.2313 23.6176 84.5754 20.5201 83.371 18.197L67.0237 2.10791L65.3029 3.82869L81.6503 19.9178C82.8548 22.2409 82.5108 25.2523 80.2736 27.2311ZM78.3808 42.89C77.1763 41.7715 77.1763 39.8786 78.2087 38.6742L76.6601 40.1368C75.3694 41.3414 75.3694 43.3201 76.6601 44.5247C77.9507 45.7293 79.9295 45.7293 81.2201 44.5247L82.9409 42.8039C81.6503 44.0946 79.6715 44.0946 78.3808 42.89ZM85.7802 44.4389C84.5756 43.2343 84.5756 41.2555 85.7802 40.0509L84.0594 41.7717C82.8548 42.9763 82.8548 44.9551 84.0594 46.1596C85.264 47.3642 87.1567 47.3642 88.3612 46.1596L89.738 44.7829C88.5334 45.6432 86.8987 45.4713 85.7802 44.4389ZM108.236 42.8039L104.192 38.9322C101.783 36.437 97.8252 36.437 95.4163 38.9322L94.2117 40.1368C96.6209 38.158 100.234 38.3299 102.471 40.5669L106.515 44.4386L109.01 41.9437L108.236 42.8039Z" fill="#D65348"/>
</svg>
