<svg width="110" height="110" viewBox="0 0 110 110" fill="none" xmlns="http://www.w3.org/2000/svg">
<path d="M100.833 78.8221C99.8208 78.8221 99 78.0012 99 76.9888C99 73.9512 96.5376 71.4888 93.5 71.4888C92.4875 71.4888 91.6666 70.6679 91.6666 69.6554C91.6666 68.643 92.4875 67.8221 93.5 67.8221C96.5376 67.8221 99 65.3597 99 62.3221C99 61.3096 99.8208 60.4888 100.833 60.4888C101.846 60.4888 102.667 61.3096 102.667 62.3221C102.667 65.3597 105.129 67.8221 108.167 67.8221C109.179 67.8221 110 68.643 110 69.6554C110 70.6679 109.179 71.4888 108.167 71.4888C105.129 71.4888 102.667 73.9512 102.667 76.9888C102.667 78.0012 101.846 78.8221 100.833 78.8221ZM99 69.6554C99.6946 70.177 100.312 70.7942 100.833 71.4888C101.355 70.7942 101.972 70.177 102.667 69.6554C101.972 69.1339 101.355 68.5167 100.833 67.8221C100.312 68.5167 99.6946 69.1339 99 69.6554Z" fill="#87CEE9"/>
<path d="M82.5 93.4888C81.4876 93.4888 80.6667 92.6679 80.6667 91.6555C80.6667 88.6179 78.2043 86.1555 75.1667 86.1555C74.1542 86.1555 73.3334 85.3346 73.3334 84.3221C73.3334 83.3097 74.1542 82.4888 75.1667 82.4888C78.2043 82.4888 80.6667 80.0264 80.6667 76.9888C80.6667 75.9763 81.4876 75.1555 82.5 75.1555C83.5125 75.1555 84.3334 75.9763 84.3334 76.9888C84.3334 80.0264 86.7958 82.4888 89.8334 82.4888C90.8458 82.4888 91.6667 83.3097 91.6667 84.3221C91.6667 85.3346 90.8458 86.1555 89.8334 86.1555C86.7958 86.1555 84.3334 88.6179 84.3334 91.6555C84.3334 92.6679 83.5125 93.4888 82.5 93.4888ZM80.6667 84.3221C81.3613 84.8437 81.9785 85.4609 82.5 86.1555C83.0216 85.4609 83.6388 84.8437 84.3334 84.3221C83.6388 83.8005 83.0216 83.1834 82.5 82.4888C81.9785 83.1834 81.3613 83.8005 80.6667 84.3221Z" fill="#32B1CC"/>
<path d="M27.5 36.6554C26.4875 36.6554 25.6666 35.8346 25.6666 34.8221C25.6666 31.7845 23.2043 29.3221 20.1666 29.3221C19.1542 29.3221 18.3333 28.5012 18.3333 27.4888C18.3333 26.4763 19.1542 25.6554 20.1666 25.6554C23.2043 25.6554 25.6666 23.193 25.6666 20.1554C25.6666 19.143 26.4875 18.3221 27.5 18.3221C28.5124 18.3221 29.3333 19.143 29.3333 20.1554C29.3333 23.193 31.7957 25.6554 34.8333 25.6554C35.8458 25.6554 36.6666 26.4763 36.6666 27.4888C36.6666 28.5012 35.8458 29.3221 34.8333 29.3221C31.7957 29.3221 29.3333 31.7845 29.3333 34.8221C29.3333 35.8346 28.5124 36.6554 27.5 36.6554ZM25.6666 27.4888C26.3613 28.0103 26.9784 28.6275 27.5 29.3221C28.0216 28.6275 28.6387 28.0103 29.3333 27.4888C28.6387 26.9672 28.0216 26.35 27.5 25.6554C26.9784 26.35 26.3613 26.9672 25.6666 27.4888Z" fill="black"/>
<path d="M9.16667 51.3222C8.15421 51.3222 7.33333 50.5013 7.33333 49.4888C7.33333 46.4512 4.87094 43.9888 1.83333 43.9888C0.820875 43.9888 0 43.168 0 42.1555C0 41.143 0.820875 40.3222 1.83333 40.3222C4.87094 40.3222 7.33333 37.8598 7.33333 34.8222C7.33333 33.8097 8.15421 32.9888 9.16667 32.9888C10.1791 32.9888 11 33.8097 11 34.8222C11 37.8598 13.4624 40.3222 16.5 40.3222C17.5125 40.3222 18.3333 41.143 18.3333 42.1555C18.3333 43.168 17.5125 43.9888 16.5 43.9888C13.4624 43.9888 11 46.4512 11 49.4888C11 50.5013 10.1791 51.3222 9.16667 51.3222ZM7.33333 42.1555C8.02794 42.6771 8.64508 43.2942 9.16667 43.9888C9.68825 43.2942 10.3054 42.6771 11 42.1555C10.3054 41.6339 9.68825 41.0168 9.16667 40.3222C8.64508 41.0168 8.02794 41.6339 7.33333 42.1555Z" fill="#87CEE9"/>
<path d="M16.5 12.8221H93.5V97.1555H16.5V12.8221Z" fill="#87CEE9"/>
<path d="M60.5 31.1555C59.4875 31.1552 58.6669 30.3344 58.6671 29.3217C58.6671 28.8356 58.8603 28.3695 59.2038 28.026L75.7038 11.526C76.4321 10.8226 77.5926 10.8426 78.2961 11.5709C78.9823 12.2813 78.9823 13.4076 78.2961 14.1183L61.7962 30.6183C61.4524 30.962 60.9863 31.1552 60.5 31.1555Z" fill="#32B1CC"/>
<path d="M60.5 42.1555C59.4875 42.1552 58.6669 41.3344 58.6671 40.3217C58.6671 39.8356 58.8603 39.3695 59.2038 39.026L86.7038 11.526C87.4321 10.8226 88.5926 10.8426 89.2962 11.5709C89.9823 12.2813 89.9823 13.4076 89.2962 14.1183L61.7962 41.6183C61.4524 41.962 60.9863 42.1552 60.5 42.1555Z" fill="#32B1CC"/>
<path d="M49.5 98.9887C48.4875 98.9885 47.6669 98.1676 47.6671 97.1549C47.6671 96.6689 47.8603 96.203 48.2038 95.8592L64.7038 79.3592C65.4321 78.6557 66.5926 78.6759 67.2961 79.4042C67.9825 80.1146 67.9825 81.2412 67.2961 81.9516L50.7962 98.4516C50.4524 98.7953 49.9863 98.9885 49.5 98.9887Z" fill="#32B1CC"/>
<path d="M38.5 98.9888C37.4875 98.9886 36.6669 98.1677 36.6671 97.155C36.6671 96.6689 36.8603 96.203 37.2038 95.8593L64.7038 68.3593C65.4321 67.6558 66.5926 67.6759 67.2961 68.4042C67.9825 69.1146 67.9825 70.2412 67.2961 70.9516L39.7962 98.4516C39.4524 98.7954 38.9863 98.9886 38.5 98.9888Z" fill="#32B1CC"/>
</svg>
