<svg width="110" height="110" viewBox="0 0 110 110" fill="none" xmlns="http://www.w3.org/2000/svg">
<g clip-path="url(#clip0)">
<path d="M109.052 30.4587L30.4586 109.052C29.2004 110.306 27.1651 110.306 25.9069 109.052L22.8155 105.96L21.4689 104.614L20.1224 103.267L14.7741 97.919L13.4276 96.5725L5.32929 88.4742L3.98274 87.1466V87.1276L0.948257 84.0932C-0.305593 82.835 -0.305593 80.7996 0.948257 79.5414L31.7862 48.7035L51.4155 29.0742L79.5414 0.948322C80.7995 -0.305528 82.8349 -0.305528 84.0931 0.948322L87.1845 4.0397L88.531 5.38625L97.9189 14.7742L103.267 20.1414H103.286L104.614 21.469L105.96 22.8156L109.052 25.9069C110.306 27.1651 110.306 29.2005 109.052 30.4587Z" fill="#A56A43"/>
<path d="M105.96 22.8156L102.167 26.6466C96.6059 32.2951 88.6121 34.8296 80.8121 33.4173C79.64 33.2205 78.454 33.1191 77.2655 33.1138C71.8792 33.096 66.7096 35.2335 62.9086 39.05L62.3776 39.5811C61.6297 40.3146 60.4324 40.3146 59.6845 39.5811C58.9449 38.8357 58.9449 37.6333 59.6845 36.888L60.2155 36.3569C65.7867 30.7938 73.7268 28.3077 81.4759 29.7C88.0491 30.8741 94.7793 28.7395 99.4742 23.9914L103.267 20.1414H103.286L104.614 21.469L105.96 22.8156Z" fill="#805333"/>
<path d="M47.0155 76.3362L46.8638 76.4879C41.295 82.1235 33.3049 84.6496 25.5086 83.2396C24.3365 83.0429 23.1505 82.9414 21.962 82.9362C16.5757 82.9183 11.4061 85.0559 7.60514 88.8724L6.67583 89.8017H6.65687L5.32928 88.4741L3.98273 87.1465V87.1276L4.91204 86.1983C10.4761 80.6226 18.4197 78.1282 26.1724 79.5224C32.7458 80.6999 39.4776 78.5647 44.1707 73.8138L44.3224 73.6431C45.0661 72.8994 46.2718 72.8994 47.0155 73.6431C47.7592 74.3868 47.7592 75.5925 47.0155 76.3362Z" fill="#805333"/>
<path d="M89.8586 6.71381L83.1638 13.4276C82.8031 13.7785 82.3204 13.9756 81.8172 13.9776C81.3197 13.9755 80.8429 13.778 80.4897 13.4276C80.1259 13.0779 79.9204 12.5951 79.9204 12.0905C79.9204 11.586 80.1259 11.1032 80.4897 10.7535L87.1845 4.03967L88.531 5.38622L89.8586 6.71381Z" fill="#603E26"/>
<path d="M71.0922 24.7102C70.3252 24.71 69.6339 24.248 69.3404 23.5394C69.0469 22.8308 69.2091 22.0152 69.7513 21.4728L75.1148 16.1093C75.5938 15.63 76.2922 15.4426 76.9469 15.6177C77.6016 15.7929 78.1131 16.304 78.2887 16.9586C78.4644 17.6131 78.2774 18.3117 77.7984 18.7911L72.4331 24.1545C72.0783 24.5115 71.5954 24.7116 71.0922 24.7102Z" fill="#805333"/>
<path d="M70.6466 49.3104C69.8796 49.3102 69.1882 48.8481 68.8948 48.1395C68.6013 47.4309 68.7635 46.6153 69.3057 46.0729L73.7816 41.5971C74.5257 40.8783 75.7086 40.8886 76.4402 41.6202C77.1718 42.3517 77.182 43.5346 76.4633 44.2788L71.9874 48.7547C71.6318 49.1104 71.1495 49.3102 70.6466 49.3104Z" fill="#603E26"/>
<path d="M20.8621 75.8621C20.0951 75.8619 19.4038 75.3999 19.1103 74.6913C18.8168 73.9827 18.979 73.1671 19.5212 72.6247L31.9247 60.2212C32.6688 59.5025 33.8517 59.5128 34.5833 60.2443C35.3149 60.9759 35.3251 62.1588 34.6064 62.903L22.2029 75.3064C21.8474 75.6621 21.365 75.862 20.8621 75.8621Z" fill="#603E26"/>
<path d="M37.419 90.4466L22.8535 105.922L22.8155 105.96L21.469 104.614L20.1224 103.267L34.65 87.8294C35.3728 87.0647 36.5785 87.0308 37.3431 87.7535C38.1078 88.4762 38.1417 89.682 37.419 90.4466Z" fill="#603E26"/>
<path d="M97.9189 14.7742L91.2051 21.469C90.8554 21.8327 90.3726 22.0383 89.868 22.0383C89.3635 22.0383 88.8807 21.8327 88.531 21.469C87.7956 20.7293 87.7956 19.5346 88.531 18.7948L95.2258 12.0811L97.9189 14.7742Z" fill="#805333"/>
<path d="M55.2086 81.5328L47.0913 79.0104C46.3327 78.7674 45.804 78.08 45.7637 77.2845L45.6689 74.9897L45.2896 66.7586C45.2516 65.9562 44.7121 65.2648 43.9431 65.0328L33.8913 61.9035C33.6641 61.8278 33.4521 61.7122 33.2655 61.5621C32.842 61.224 32.586 60.719 32.5638 60.1776L32.0896 49.6707C32.0695 49.3282 31.9653 48.996 31.7862 48.7035C31.5402 48.3382 31.18 48.0647 30.762 47.9259L20.7103 44.8155C19.9412 44.5835 19.4018 43.8921 19.3638 43.0897L18.9086 32.5638C18.8705 31.7614 18.3311 31.07 17.562 30.8379L7.5103 27.7276C6.75171 27.4847 6.22292 26.7973 6.18272 26.0017L5.68961 14.9638C5.67166 14.4438 5.86294 13.9383 6.22065 13.5604L18.7 0.587954C19.4404 -0.177229 20.6593 -0.202621 21.431 0.531057L51.4155 29.0742L53.3879 30.9707L61.031 38.2345L70.6465 47.4138L72.6569 49.3104L77.5689 53.9759L55.2086 81.5328Z" fill="#BDC3C7"/>
<path d="M22.2087 90.4845L14.7742 97.919L13.4276 96.5724L12.0811 95.2259L19.5155 87.7914C20.2592 87.0477 21.465 87.0477 22.2087 87.7914C22.9523 88.5351 22.9523 89.7408 22.2087 90.4845Z" fill="#805333"/>
<path d="M23.0848 14.6945C22.5982 14.6941 22.1304 14.5067 21.7781 14.1711L18.9769 11.5045C18.2439 10.7775 18.2271 9.5977 18.9391 8.85009C19.6511 8.10248 20.8303 8.06169 21.5922 8.75832L24.3934 11.4135C24.9563 11.9482 25.1364 12.772 24.8481 13.4929C24.5598 14.2137 23.8612 14.686 23.0848 14.685V14.6945Z" fill="white"/>
<path d="M45.485 36.0231C44.9984 36.0227 44.5305 35.8353 44.1782 35.4997L27.3786 19.5022C26.6614 18.7728 26.6519 17.6061 27.3571 16.8651C28.0622 16.1241 29.228 16.0759 29.992 16.756L46.7936 32.7535C47.355 33.2884 47.5343 34.1113 47.2461 34.8313C46.9579 35.5513 46.2605 36.0233 45.485 36.0231Z" fill="white"/>
<path d="M106.776 76.3552L81.1534 53.2363C80.3556 52.434 79.0599 52.4255 78.2517 53.2173L55.4741 78.4604C55.1293 78.8564 54.9705 79.381 55.0379 79.9018L55.7775 86.8621C55.8467 87.4147 56.1086 87.9251 56.5172 88.3035L78.2896 107.933C81.8362 111.119 88.3034 109.716 91.1672 106.548L108.009 87.8863C110.84 84.358 110.289 79.2051 106.776 76.3552ZM82.7086 101.504L71.2155 91.1483L89.3465 71.0449L100.84 81.4L82.7086 101.504Z" fill="#E57E25"/>
</g>
<defs>
<clipPath id="clip0">
<rect width="110" height="110" fill="white"/>
</clipPath>
</defs>
</svg>
