<?xml version="1.0" encoding="UTF-8" standalone="no"?>
<!DOCTYPE svg PUBLIC "-//W3C//DTD SVG 1.1//EN" "http://www.w3.org/Graphics/SVG/1.1/DTD/svg11.dtd">
<svg version="1.1" xmlns="http://www.w3.org/2000/svg" xmlns:xlink="http://www.w3.org/1999/xlink" preserveAspectRatio="xMidYMid meet" viewBox="0 0 640 640" width="640" height="640"><defs><path d="M0 0L640 0L640 640L0 640L0 0Z" id="b1U1eN4Jtw"></path><path d="M489.93 591.17C489.93 596.05 485.98 600 481.1 600C448.88 600 191.12 600 158.9 600C154.02 600 150.07 596.05 150.07 591.17C150.07 586.84 150.07 552.18 150.07 547.85C150.07 520.85 163.08 496.88 183.17 481.88C183.17 453.47 183.17 226.2 183.17 197.79C183.17 137.16 232.33 88 292.97 88C298.48 88 342.62 88 348.14 88C408.77 88 457.93 137.16 457.93 197.79C457.93 226.29 457.93 454.23 457.93 482.73C477.4 497.77 489.93 521.35 489.93 547.85C489.93 556.52 489.93 586.84 489.93 591.17Z" id="a9D0KIrxK"></path><path d="M489.93 591.17C489.93 596.05 485.98 600 481.1 600C448.88 600 191.12 600 158.9 600C154.02 600 150.07 596.05 150.07 591.17C150.07 586.84 150.07 552.18 150.07 547.85C150.07 502.46 186.86 465.57 232.35 465.57C242.45 465.57 251.78 462.3 259.35 456.76C259.49 457.62 260.15 461.9 261.34 469.62C293.29 494.36 311.04 508.1 314.59 510.85C317.78 513.31 322.22 513.31 325.41 510.85C328.96 508.1 346.71 494.36 378.66 469.62C379.85 461.9 380.51 457.62 380.65 456.76C388.22 462.3 397.55 465.57 407.65 465.57C452.98 465.57 489.93 502.32 489.93 547.85C489.93 556.52 489.93 586.84 489.93 591.17Z" id="b4bIL2tkQr"></path><path d="M378.66 469.62L358.58 600L281.42 600L261.34 469.62C293.29 494.36 311.05 508.1 314.6 510.85C317.78 513.31 322.22 513.31 325.4 510.85C332.5 505.35 350.26 491.61 378.66 469.62Z" id="f3iTNFb73v"></path><path d="M429.24 256.63C429.24 252.92 426.93 249.6 423.44 248.34C404.24 241.39 388.03 228.01 377.61 210.14C374.57 204.93 367.33 204.16 363.38 208.73C327.01 250.75 276.87 278.53 218.54 285.62C214.1 286.16 210.76 289.91 210.76 294.38C210.76 296.05 210.76 309.37 210.76 311.04C210.76 356.58 238.62 395.61 278.23 412C278.22 412.03 278.17 412.17 278.07 412.41C278.07 416.94 278.07 419.45 278.07 419.95C278.07 445.21 257.54 465.57 232.35 465.57C213.91 465.57 196.9 471.64 183.17 481.88C183.17 473.07 183.17 189.43 183.17 197.79C183.17 137.16 232.33 88 292.97 88C298.48 88 342.62 88 348.14 88C408.77 88 457.93 137.16 457.93 197.79C457.93 226.29 457.93 454.23 457.93 482.73C444.03 471.97 426.58 465.57 407.65 465.57C382.49 465.57 361.93 445.24 361.93 419.95C361.93 419.45 361.93 416.94 361.93 412.41C361.83 412.17 361.78 412.03 361.77 412.01C401.38 395.61 429.24 356.58 429.24 311.04C429.24 300.16 429.24 262.07 429.24 256.63Z" id="d7MTtTQwl9"></path><path d="M429.24 256.63C429.24 262.07 429.24 305.6 429.24 311.04C429.24 356.58 401.38 395.61 361.77 412.01C290.13 441.74 210.76 388.92 210.76 311.04C210.76 309.37 210.76 296.05 210.76 294.39C210.76 289.92 214.1 286.17 218.54 285.63C276.84 278.54 326.99 250.78 363.38 208.73C367.33 204.16 374.57 204.93 377.61 210.14C388.02 228 404.23 241.39 423.44 248.34C426.93 249.6 429.24 252.92 429.24 256.63Z" id="aQGSiQwMn"></path><path d="M276.82 430.53C278.32 424.32 278.07 420.3 278.07 412.41C278.09 412.37 278.22 412.05 278.23 412.01C304.81 423.04 335.14 423.06 361.77 412.01C361.78 412.05 361.91 412.37 361.93 412.41C361.93 420.31 361.68 424.33 363.18 430.53C335.99 441.91 306.12 442.8 276.82 430.53Z" id="amrEcMJ3o"></path><path d="M383.96 121.14C381.74 121.08 324.96 121.1 326.07 121.1C265.43 121.1 216.28 170.26 216.28 230.9C216.28 235.8 216.28 274.99 216.28 279.89C216.28 287.93 210.76 288.15 210.76 294.39C210.76 312.03 209.93 325.16 215.65 343.46C216.05 344.76 216.28 346.1 216.28 347.46C216.28 358.41 216.28 446.02 216.28 456.98C216.28 462.63 212.69 467.73 207.3 469.45C198.53 472.26 190.4 476.49 183.17 481.88C183.17 453.47 183.17 226.2 183.17 197.79C183.17 137.16 232.33 88 292.97 88C298.48 88 342.62 88 348.14 88C362.77 88 376.73 90.86 389.49 96.05C402.94 101.52 398.48 121.49 383.96 121.14Z" id="a26KiGpWc5"></path><path d="M279.45 412.5C238.59 396.12 210.76 356.46 210.76 311.04C210.76 309.37 210.76 296.05 210.76 294.39C210.76 289.93 214.08 286.17 218.51 285.63C222.7 285.12 227.02 284.48 231.46 283.7C237.83 282.56 243.83 287.12 244.39 293.57C247.88 333.95 268.33 363.8 295.71 380.85C314.13 392.31 299.58 420.57 279.45 412.5Z" id="f1aCOJzcP"></path><path d="M182.07 579.85C182.07 581.19 182.07 587.91 182.07 600C168.17 600 160.44 600 158.9 600C154.02 600 150.07 596.05 150.07 591.17C150.07 586.84 150.07 552.18 150.07 547.85C150.07 502.46 186.86 465.57 232.35 465.57C242.45 465.57 251.78 462.3 259.35 456.76C261.86 473 260.54 464.45 265.64 497.54C213.9 498.87 182.07 537.83 182.07 579.85Z" id="bNwBLUmbV"></path><path d="M457.93 579.85C457.93 581.19 457.93 587.91 457.93 600C471.83 600 479.56 600 481.1 600C485.98 600 489.93 596.05 489.93 591.17C489.93 586.84 489.93 552.18 489.93 547.85C489.93 502.46 453.14 465.57 407.65 465.57C397.55 465.57 388.22 462.3 380.65 456.76C378.14 473 379.46 464.45 374.36 497.54C426.1 498.87 457.93 537.83 457.93 579.85Z" id="iol23VMF0"></path><path d="M303.49 600L281.42 600L261.34 469.62L286.4 489.02L303.49 600Z" id="a1Ab4yJRWa"></path></defs><g><g><g><use xlink:href="#b1U1eN4Jtw" opacity="1" fill="#bac8d3" fill-opacity="1"></use></g><g><use xlink:href="#a9D0KIrxK" opacity="1" fill="#ffdfba" fill-opacity="1"></use><g><use xlink:href="#a9D0KIrxK" opacity="1" fill-opacity="0" stroke="#000000" stroke-width="1" stroke-opacity="0"></use></g></g><g><use xlink:href="#b4bIL2tkQr" opacity="1" fill="#ffa4b8" fill-opacity="1"></use><g><use xlink:href="#b4bIL2tkQr" opacity="1" fill-opacity="0" stroke="#000000" stroke-width="1" stroke-opacity="0"></use></g></g><g><use xlink:href="#f3iTNFb73v" opacity="1" fill="#d6f4fc" fill-opacity="1"></use><g><use xlink:href="#f3iTNFb73v" opacity="1" fill-opacity="0" stroke="#000000" stroke-width="1" stroke-opacity="0"></use></g></g><g><use xlink:href="#d7MTtTQwl9" opacity="1" fill="#c79a83" fill-opacity="1"></use><g><use xlink:href="#d7MTtTQwl9" opacity="1" fill-opacity="0" stroke="#000000" stroke-width="1" stroke-opacity="0"></use></g></g><g><use xlink:href="#aQGSiQwMn" opacity="1" fill="#ffebd2" fill-opacity="1"></use><g><use xlink:href="#aQGSiQwMn" opacity="1" fill-opacity="0" stroke="#000000" stroke-width="1" stroke-opacity="0"></use></g></g><g><use xlink:href="#amrEcMJ3o" opacity="1" fill="#ffd6a6" fill-opacity="1"></use><g><use xlink:href="#amrEcMJ3o" opacity="1" fill-opacity="0" stroke="#000000" stroke-width="1" stroke-opacity="0"></use></g></g><g><use xlink:href="#a26KiGpWc5" opacity="1" fill="#e0b7a3" fill-opacity="1"></use><g><use xlink:href="#a26KiGpWc5" opacity="1" fill-opacity="0" stroke="#000000" stroke-width="1" stroke-opacity="0"></use></g></g><g><use xlink:href="#f1aCOJzcP" opacity="1" fill="#fff3e4" fill-opacity="1"></use><g><use xlink:href="#f1aCOJzcP" opacity="1" fill-opacity="0" stroke="#000000" stroke-width="1" stroke-opacity="0"></use></g></g><g><use xlink:href="#bNwBLUmbV" opacity="1" fill="#ffb1bf" fill-opacity="1"></use><g><use xlink:href="#bNwBLUmbV" opacity="1" fill-opacity="0" stroke="#000000" stroke-width="1" stroke-opacity="0"></use></g></g><g><use xlink:href="#iol23VMF0" opacity="1" fill="#ff99af" fill-opacity="1"></use><g><use xlink:href="#iol23VMF0" opacity="1" fill-opacity="0" stroke="#000000" stroke-width="1" stroke-opacity="0"></use></g></g><g><use xlink:href="#a1Ab4yJRWa" opacity="1" fill="#bdeffc" fill-opacity="1"></use><g><use xlink:href="#a1Ab4yJRWa" opacity="1" fill-opacity="0" stroke="#000000" stroke-width="1" stroke-opacity="0"></use></g></g></g></g></svg>