<svg width="437" height="104" viewBox="0 0 437 104" fill="none" xmlns="http://www.w3.org/2000/svg">
<path d="M92 50.069V91.3103C91.9948 93.0603 90.5775 94.4775 88.8276 94.4828H85.6552V102.414C85.6543 102.993 85.3373 103.526 84.8286 103.804C84.3198 104.081 83.7002 104.059 83.2125 103.746L68.2069 94.4828H31.7242C29.9743 94.4775 28.557 93.0603 28.5518 91.3103V59.5862L63.4483 46.8966H88.8276C90.5775 46.9018 91.9948 48.3191 92 50.069Z" fill="#2FA8CC"/>
<path d="M66.6207 46.8966V59.5862C66.6155 61.3361 65.1982 62.7534 63.4483 62.7586H28.5518V59.5862L63.4483 46.8966H66.6207Z" fill="#3B97D3"/>
<path d="M42.8276 77.0345C45.4557 77.0345 47.5862 74.904 47.5862 72.2759C47.5862 69.6477 45.4557 67.5172 42.8276 67.5172C40.1995 67.5172 38.069 69.6477 38.069 72.2759C38.069 74.904 40.1995 77.0345 42.8276 77.0345Z" fill="#ECF0F1"/>
<path d="M60.2758 77.0345C62.9039 77.0345 65.0345 74.904 65.0345 72.2759C65.0345 69.6477 62.9039 67.5172 60.2758 67.5172C57.6477 67.5172 55.5172 69.6477 55.5172 72.2759C55.5172 74.904 57.6477 77.0345 60.2758 77.0345Z" fill="#ECF0F1"/>
<path d="M77.7241 77.0345C80.3522 77.0345 82.4827 74.904 82.4827 72.2759C82.4827 69.6477 80.3522 67.5172 77.7241 67.5172C75.096 67.5172 72.9655 69.6477 72.9655 72.2759C72.9655 74.904 75.096 77.0345 77.7241 77.0345Z" fill="#ECF0F1"/>
<path d="M63.4483 15.1724V56.4138C63.4431 58.1637 62.0258 59.581 60.2759 59.5862H23.7931L8.78283 68.8528C8.29479 69.1635 7.67632 69.1838 7.16894 68.9059C6.66156 68.6279 6.34574 68.0958 6.34483 67.5172V59.5862H3.17241C1.42251 59.581 0.00522623 58.1637 0 56.4138V15.1724C0.00522623 13.4225 1.42251 12.0052 3.17241 12H60.2759C62.0258 12.0052 63.4431 13.4225 63.4483 15.1724Z" fill="#DE79B1"/>
<path d="M31.7242 40.5517C25.5919 40.5517 20.6207 35.5805 20.6207 29.4483C20.6207 23.316 25.5919 18.3448 31.7242 18.3448C37.8564 18.3448 42.8276 23.316 42.8276 29.4483C42.8206 35.5776 37.8535 40.5447 31.7242 40.5517ZM31.7242 21.5172C27.344 21.5172 23.7931 25.0681 23.7931 29.4483C23.7931 33.8285 27.344 37.3793 31.7242 37.3793C36.1044 37.3793 39.6552 33.8285 39.6552 29.4483C39.65 25.0703 36.1022 21.5225 31.7242 21.5172Z" fill="#ECF0F1"/>
<path d="M31.7241 53.2414C30.8481 53.2414 30.1379 52.5312 30.1379 51.6552V38.9655C30.1379 38.0895 30.8481 37.3793 31.7241 37.3793C32.6002 37.3793 33.3104 38.0895 33.3104 38.9655V51.6552C33.3104 52.5312 32.6002 53.2414 31.7241 53.2414Z" fill="#ECF0F1"/>
<path d="M36.4827 48.4828H26.9655C26.0894 48.4828 25.3793 47.7726 25.3793 46.8966C25.3793 46.0205 26.0894 45.3103 26.9655 45.3103H36.4827C37.3588 45.3103 38.0689 46.0205 38.0689 46.8966C38.0689 47.7726 37.3588 48.4828 36.4827 48.4828Z" fill="#ECF0F1"/>
<path d="M126.097 93.7317C124.406 93.7317 122.926 93.6504 121.658 93.4878C120.422 93.3252 119.073 92.9675 117.609 92.4146C116.146 91.8293 114.894 91.0326 113.853 90.0245C112.845 89.0163 111.821 87.618 110.78 85.8294C109.772 84.0409 108.959 81.9108 108.341 79.4393C107.723 76.9353 107.219 73.8785 106.829 70.2688C106.439 66.6267 106.244 62.4967 106.244 57.8789C106.244 51.6351 106.618 46.2694 107.366 41.7817C108.146 37.294 109.122 33.7982 110.292 31.2942C111.463 28.7902 112.975 26.8227 114.829 25.3919C116.715 23.961 118.504 23.0505 120.195 22.6602C121.918 22.27 123.967 22.0749 126.341 22.0749C129.365 22.0749 131.853 22.5302 133.804 23.4407C133.837 23.4732 133.885 23.522 133.95 23.5871C134.015 23.6196 134.064 23.6684 134.097 23.7334C134.162 23.7659 134.211 23.8472 134.243 23.9773C134.276 24.0748 134.292 24.2049 134.292 24.3675V30.2698C134.292 30.7251 134.178 30.9527 133.95 30.9527C133.918 30.9527 133.788 30.9202 133.56 30.8552C133.365 30.7901 133.072 30.7088 132.682 30.6113C132.292 30.5137 131.869 30.4162 131.414 30.3186C130.959 30.221 130.422 30.1397 129.804 30.0747C129.219 30.0097 128.633 29.9771 128.048 29.9771C126.52 29.9771 125.219 30.156 124.146 30.5137C123.073 30.8389 121.983 31.5706 120.878 32.7088C119.772 33.8144 118.878 35.3591 118.195 37.3428C117.512 39.3265 116.959 42.0419 116.536 45.489C116.113 48.936 115.902 53.066 115.902 57.8789C115.902 62.7893 116.081 66.9681 116.439 70.4152C116.829 73.8622 117.317 76.5939 117.902 78.6101C118.487 80.5938 119.3 82.1385 120.341 83.2441C121.382 84.3498 122.422 85.0652 123.463 85.3904C124.504 85.7156 125.804 85.8782 127.365 85.8782C129.674 85.8782 131.723 85.5693 133.511 84.9514C133.544 84.9514 133.609 85.114 133.707 85.4392C133.837 85.7644 133.902 85.9433 133.902 85.9758V91.5854C133.902 91.6179 133.837 91.7968 133.707 92.122C133.609 92.4146 133.544 92.5772 133.511 92.6098C131.528 93.3577 129.056 93.7317 126.097 93.7317ZM143.365 93C142.942 93 142.617 92.8537 142.389 92.561C142.194 92.2358 142.097 91.5854 142.097 90.6098V25.4894C142.097 23.7659 142.519 22.9041 143.365 22.9041H149.56C150.373 22.9041 150.779 23.7659 150.779 25.4894V50.1718C150.779 50.6596 150.861 50.9035 151.023 50.9035C151.121 50.9035 151.235 50.8059 151.365 50.6108C152.373 48.1068 153.739 46.2694 155.462 45.0987C157.186 43.928 158.925 43.3427 160.681 43.3427C162.275 43.3427 163.657 43.6841 164.828 44.367C165.998 45.0499 167.055 46.1881 167.998 47.7816C168.941 49.375 169.657 51.6189 170.145 54.5131C170.632 57.3748 170.876 60.8707 170.876 65.0007V90.6098C170.876 91.5854 170.763 92.2358 170.535 92.561C170.34 92.8537 170.047 93 169.657 93H163.413C162.99 93 162.681 92.8537 162.486 92.561C162.291 92.2358 162.194 91.5854 162.194 90.6098V63.9763C162.194 58.9683 161.852 55.3912 161.169 53.2449C160.486 51.0661 159.299 49.9767 157.608 49.9767C155.69 49.9767 154.064 51.3262 152.73 54.0253C151.43 56.6919 150.779 60.1227 150.779 64.3178V90.6098C150.779 91.5854 150.682 92.2358 150.487 92.561C150.291 92.8537 149.999 93 149.609 93H143.365ZM189.315 93.5853C186.095 93.5853 183.591 92.5447 181.803 90.4635C180.047 88.3822 179.169 85.3579 179.169 81.3905C179.169 78.4312 179.608 75.8459 180.486 73.6346C181.396 71.4233 182.518 69.7485 183.852 68.6103C185.217 67.4722 186.713 66.5291 188.339 65.7811C189.965 65.0332 191.477 64.5454 192.876 64.3178C194.274 64.0901 195.494 63.8788 196.534 63.6836C197.607 63.456 198.225 63.2284 198.388 63.0007V60.4154C198.388 56.9358 197.998 54.3343 197.217 52.6107C196.469 50.8547 195.087 49.9767 193.071 49.9767C191.38 49.9767 190.079 50.5132 189.169 51.5864C188.291 52.627 187.543 54.2367 186.925 56.4155C186.632 57.3261 186.242 57.7488 185.754 57.6838C182.339 56.8383 180.616 56.2854 180.583 56.0253C180.388 55.9277 180.274 55.5538 180.242 54.9034C180.242 54.253 180.323 53.6514 180.486 53.0985C181.331 49.9116 182.779 47.5052 184.827 45.8792C186.876 44.2207 189.803 43.3914 193.608 43.3914C195.656 43.3914 197.429 43.7329 198.924 44.4158C200.453 45.0662 201.786 46.1556 202.924 47.684C204.063 49.2124 204.908 51.2937 205.461 53.9278C206.046 56.5293 206.339 59.7163 206.339 63.4885V90.561C206.339 92.2195 205.997 93.0488 205.315 93.0488H203.754C203.168 93.0488 202.648 92.3333 202.193 90.9025C202.128 90.5773 201.802 89.5204 201.217 87.7318C200.664 85.9433 200.355 84.8701 200.29 84.5124C200.258 84.4148 200.209 84.3498 200.144 84.3173C200.111 84.2848 200.063 84.2848 199.998 84.3173C199.933 84.3498 199.9 84.4148 199.9 84.5124C199.022 87.5042 197.754 89.7643 196.095 91.2927C194.469 92.8211 192.209 93.5853 189.315 93.5853ZM191.022 87.3416C193.299 87.3416 195.12 85.8457 196.485 82.8539C197.884 79.8621 198.583 76.285 198.583 72.1225C198.583 69.651 198.437 68.4152 198.144 68.4152C197.559 68.4152 197.071 68.5128 196.681 68.7079C193.168 69.5859 190.583 71.0168 188.925 73.0005C187.299 74.9842 186.486 77.5695 186.486 80.7564C186.486 85.1465 187.998 87.3416 191.022 87.3416ZM216.973 93C216.615 93 216.322 92.7073 216.095 92.122C215.867 91.5041 215.753 90.6911 215.753 89.683V47.4889C215.753 46.4483 215.851 45.6028 216.046 44.9524C216.274 44.2695 216.566 43.928 216.924 43.928H218.631C219.444 43.928 220.03 44.9036 220.387 46.8548L221.265 53.44C221.363 53.8302 221.493 54.0253 221.656 54.0253C221.753 54.0253 221.851 53.814 221.948 53.3912C223.607 46.6922 226.712 43.3427 231.265 43.3427C235.428 43.3427 238.322 46.432 239.948 52.6107C240.045 52.8709 240.143 53.001 240.241 53.001C240.436 53.001 240.549 52.8709 240.582 52.6107C241.395 49.5539 242.663 47.245 244.387 45.6841C246.143 44.1231 247.931 43.3427 249.752 43.3427C251.021 43.3427 252.126 43.489 253.069 43.7817C254.013 44.0744 254.939 44.6597 255.85 45.5377C256.793 46.3832 257.557 47.5377 258.143 49.0011C258.728 50.4644 259.199 52.4319 259.557 54.9034C259.915 57.3748 260.094 60.2853 260.094 63.6349V89.683C260.094 91.8943 259.687 93 258.874 93H253.216C252.403 93 251.996 91.8943 251.996 89.683V62.7568C251.996 57.8139 251.671 54.4481 251.021 52.6595C250.37 50.8709 249.281 49.9767 247.753 49.9767C246.094 49.9767 244.712 51.1311 243.606 53.44C242.533 55.7163 241.997 59.3423 241.997 64.3178V89.683C241.997 90.6911 241.883 91.5041 241.655 92.122C241.427 92.7073 241.135 93 240.777 93H235.167C234.322 93 233.899 91.8943 233.899 89.683V63.391C233.899 58.2854 233.558 54.7733 232.875 52.8546C232.192 50.936 231.119 49.9767 229.655 49.9767C228.355 49.9767 227.249 50.6758 226.338 52.0742C225.46 53.44 224.826 55.2123 224.436 57.3911C224.078 59.5374 223.899 62.0251 223.899 64.8543V89.683C223.899 90.6911 223.786 91.5041 223.558 92.122C223.33 92.7073 223.038 93 222.68 93H216.973ZM278.483 93.5853C275.264 93.5853 272.76 92.5447 270.971 90.4635C269.215 88.3822 268.337 85.3579 268.337 81.3905C268.337 78.4312 268.776 75.8459 269.654 73.6346C270.565 71.4233 271.687 69.7485 273.02 68.6103C274.386 67.4722 275.882 66.5291 277.508 65.7811C279.134 65.0332 280.646 64.5454 282.044 64.3178C283.443 64.0901 284.662 63.8788 285.703 63.6836C286.776 63.456 287.394 63.2284 287.556 63.0007V60.4154C287.556 56.9358 287.166 54.3343 286.386 52.6107C285.638 50.8547 284.256 49.9767 282.239 49.9767C280.548 49.9767 279.248 50.5132 278.337 51.5864C277.459 52.627 276.711 54.2367 276.093 56.4155C275.801 57.3261 275.41 57.7488 274.923 57.6838C271.508 56.8383 269.785 56.2854 269.752 56.0253C269.557 55.9277 269.443 55.5538 269.411 54.9034C269.411 54.253 269.492 53.6514 269.654 53.0985C270.5 49.9116 271.947 47.5052 273.996 45.8792C276.045 44.2207 278.971 43.3914 282.776 43.3914C284.825 43.3914 286.597 43.7329 288.093 44.4158C289.621 45.0662 290.955 46.1556 292.093 47.684C293.231 49.2124 294.077 51.2937 294.629 53.9278C295.215 56.5293 295.507 59.7163 295.507 63.4885V90.561C295.507 92.2195 295.166 93.0488 294.483 93.0488H292.922C292.337 93.0488 291.816 92.3333 291.361 90.9025C291.296 90.5773 290.971 89.5204 290.386 87.7318C289.833 85.9433 289.524 84.8701 289.459 84.5124C289.426 84.4148 289.378 84.3498 289.312 84.3173C289.28 84.2848 289.231 84.2848 289.166 84.3173C289.101 84.3498 289.069 84.4148 289.069 84.5124C288.191 87.5042 286.922 89.7643 285.264 91.2927C283.638 92.8211 281.378 93.5853 278.483 93.5853ZM280.191 87.3416C282.467 87.3416 284.288 85.8457 285.654 82.8539C287.052 79.8621 287.752 76.285 287.752 72.1225C287.752 69.651 287.605 68.4152 287.313 68.4152C286.727 68.4152 286.239 68.5128 285.849 68.7079C282.337 69.5859 279.752 71.0168 278.093 73.0005C276.467 74.9842 275.654 77.5695 275.654 80.7564C275.654 85.1465 277.166 87.3416 280.191 87.3416Z" fill="#2FA8CC"/>
<path d="M319.507 93C319.084 93 318.775 92.8862 318.58 92.6585C318.385 92.3984 318.287 91.8293 318.287 90.9513V24.9041C318.287 24.0586 318.385 23.5058 318.58 23.2456C318.775 22.9854 319.084 22.8554 319.507 22.8554H345.165C345.425 22.8554 345.636 22.8879 345.799 22.9529C345.962 23.018 346.092 23.1968 346.189 23.4895C346.319 23.7822 346.384 24.2212 346.384 24.8065V28.6601C346.384 29.4731 346.287 30.0097 346.092 30.2698C345.896 30.4975 345.588 30.6113 345.165 30.6113H328.482C328.092 30.6113 327.897 31.1478 327.897 32.221V51.9278C327.897 52.2205 327.946 52.5132 328.043 52.8059C328.173 53.0985 328.287 53.2449 328.385 53.2449H341.799C342.612 53.2449 343.018 53.9928 343.018 55.4887V59.2447C343.018 60.7406 342.612 61.4886 341.799 61.4886H328.433C328.303 61.4886 328.173 61.6512 328.043 61.9764C327.946 62.3016 327.897 62.6267 327.897 62.9519V85.2441H345.311C345.604 85.2441 345.831 85.2766 345.994 85.3416C346.157 85.4067 346.287 85.5855 346.384 85.8782C346.514 86.1709 346.579 86.6099 346.579 87.1953V91.0488C346.579 91.8618 346.466 92.3984 346.238 92.6585C346.043 92.8862 345.734 93 345.311 93H319.507ZM355.896 93C355.083 93 354.677 92.122 354.677 90.3659V24.6114C354.677 22.6602 355.083 21.6847 355.896 21.6847H361.359C362.172 21.6847 362.579 22.6602 362.579 24.6114V90.3659C362.579 92.122 362.172 93 361.359 93H355.896ZM381.018 93.5853C377.798 93.5853 375.294 92.5447 373.506 90.4635C371.749 88.3822 370.871 85.3579 370.871 81.3905C370.871 78.4312 371.31 75.8459 372.189 73.6346C373.099 71.4233 374.221 69.7485 375.554 68.6103C376.92 67.4722 378.416 66.5291 380.042 65.7811C381.668 65.0332 383.18 64.5454 384.578 64.3178C385.977 64.0901 387.196 63.8788 388.237 63.6836C389.31 63.456 389.928 63.2284 390.091 63.0007V60.4154C390.091 56.9358 389.7 54.3343 388.92 52.6107C388.172 50.8547 386.79 49.9767 384.774 49.9767C383.083 49.9767 381.782 50.5132 380.871 51.5864C379.993 52.627 379.245 54.2367 378.627 56.4155C378.335 57.3261 377.944 57.7488 377.457 57.6838C374.042 56.8383 372.319 56.2854 372.286 56.0253C372.091 55.9277 371.977 55.5538 371.945 54.9034C371.945 54.253 372.026 53.6514 372.189 53.0985C373.034 49.9116 374.481 47.5052 376.53 45.8792C378.579 44.2207 381.505 43.3914 385.31 43.3914C387.359 43.3914 389.131 43.7329 390.627 44.4158C392.155 45.0662 393.489 46.1556 394.627 47.684C395.765 49.2124 396.611 51.2937 397.164 53.9278C397.749 56.5293 398.042 59.7163 398.042 63.4885V90.561C398.042 92.2195 397.7 93.0488 397.017 93.0488H395.456C394.871 93.0488 394.351 92.3333 393.895 90.9025C393.83 90.5773 393.505 89.5204 392.92 87.7318C392.367 85.9433 392.058 84.8701 391.993 84.5124C391.96 84.4148 391.912 84.3498 391.847 84.3173C391.814 84.2848 391.765 84.2848 391.7 84.3173C391.635 84.3498 391.603 84.4148 391.603 84.5124C390.725 87.5042 389.456 89.7643 387.798 91.2927C386.172 92.8211 383.912 93.5853 381.018 93.5853ZM382.725 87.3416C385.001 87.3416 386.822 85.8457 388.188 82.8539C389.586 79.8621 390.286 76.285 390.286 72.1225C390.286 69.651 390.139 68.4152 389.847 68.4152C389.261 68.4152 388.773 68.5128 388.383 68.7079C384.871 69.5859 382.286 71.0168 380.627 73.0005C379.001 74.9842 378.188 77.5695 378.188 80.7564C378.188 85.1465 379.701 87.3416 382.725 87.3416ZM416.48 93.5366C414.236 93.5366 412.041 93 409.895 91.9268C407.781 90.8537 405.927 89.3578 404.334 87.4391L407.212 81.8295C410.171 85.2116 413.163 86.9026 416.187 86.9026C418.041 86.9026 419.439 86.2684 420.382 85.0002C421.358 83.6994 421.846 82.1222 421.846 80.2686C421.846 78.48 421.342 77.0166 420.334 75.8785C419.358 74.7078 417.586 73.2281 415.017 71.4395C413.488 70.3664 412.253 69.4396 411.309 68.6591C410.399 67.8461 409.505 66.8543 408.627 65.6836C407.749 64.5129 407.098 63.1958 406.675 61.7325C406.285 60.2366 406.09 58.513 406.09 56.5619C406.09 52.7571 407.147 49.6027 409.261 47.0987C411.375 44.5947 414.139 43.3427 417.553 43.3427C421.683 43.3427 425.228 44.9849 428.187 48.2694L425.163 54.0741C422.854 51.5376 420.529 50.2693 418.187 50.2693C416.659 50.2693 415.472 50.8222 414.626 51.9278C413.781 53.001 413.358 54.3505 413.358 55.9765C413.358 57.7976 413.862 59.3423 414.87 60.6105C415.878 61.8463 417.407 63.1145 419.456 64.4153C420.919 65.3584 422.155 66.2689 423.163 67.147C424.203 68.025 425.195 69.0981 426.138 70.3664C427.114 71.6021 427.846 73.0493 428.333 74.7078C428.821 76.3662 429.065 78.2361 429.065 80.3174C429.065 84.4148 427.959 87.6505 425.748 90.0245C423.569 92.3659 420.48 93.5366 416.48 93.5366Z" fill="#DE79B1"/>
</svg>
