<svg width="83" height="83" viewBox="0 0 83 83" fill="none" xmlns="http://www.w3.org/2000/svg">
<path d="M83 34.3449V71.5517C82.9953 73.1305 81.7167 74.4091 80.138 74.4138H77.2759V81.569C77.275 82.0918 76.9891 82.5725 76.5301 82.8229C76.0711 83.0733 75.5122 83.0534 75.0721 82.7711L61.5345 74.4138H28.6207C27.042 74.4091 25.7634 73.1305 25.7587 71.5517V42.9311L57.2414 31.4828H80.138C81.7167 31.4875 82.9953 32.7661 83 34.3449Z" fill="#2FA8CC"/>
<path d="M60.1035 31.4828V42.9311C60.0988 44.5098 58.8201 45.7884 57.2414 45.7931H25.7587V42.9311L57.2414 31.4828H60.1035Z" fill="#3B97D3"/>
<path d="M38.638 58.6724C41.009 58.6724 42.9311 56.7503 42.9311 54.3793C42.9311 52.0083 41.009 50.0862 38.638 50.0862C36.2669 50.0862 34.3448 52.0083 34.3448 54.3793C34.3448 56.7503 36.2669 58.6724 38.638 58.6724Z" fill="#ECF0F1"/>
<path d="M54.3794 58.6724C56.7504 58.6724 58.6725 56.7503 58.6725 54.3793C58.6725 52.0083 56.7504 50.0862 54.3794 50.0862C52.0084 50.0862 50.0863 52.0083 50.0863 54.3793C50.0863 56.7503 52.0084 58.6724 54.3794 58.6724Z" fill="#ECF0F1"/>
<path d="M70.1207 58.6724C72.4917 58.6724 74.4138 56.7503 74.4138 54.3793C74.4138 52.0083 72.4917 50.0862 70.1207 50.0862C67.7497 50.0862 65.8276 52.0083 65.8276 54.3793C65.8276 56.7503 67.7497 58.6724 70.1207 58.6724Z" fill="#ECF0F1"/>
<path d="M57.2414 2.86207V40.069C57.2367 41.6477 55.958 42.9263 54.3793 42.931H21.4655L7.92364 51.2911C7.48334 51.5714 6.92538 51.5897 6.46763 51.339C6.00988 51.0882 5.72496 50.6081 5.72414 50.0862V42.931H2.86207C1.28335 42.9263 0.00471497 41.6477 0 40.069V2.86207C0.00471497 1.28335 1.28335 0.00471497 2.86207 0H54.3793C55.958 0.00471497 57.2367 1.28335 57.2414 2.86207Z" fill="#DE79B1"/>
<path d="M28.6208 25.7586C23.0884 25.7586 18.6035 21.2737 18.6035 15.7414C18.6035 10.209 23.0884 5.72412 28.6208 5.72412C34.1531 5.72412 38.638 10.209 38.638 15.7414C38.6317 21.2711 34.1505 25.7523 28.6208 25.7586ZM28.6208 8.58619C24.6691 8.58619 21.4656 11.7897 21.4656 15.7414C21.4656 19.6931 24.6691 22.8965 28.6208 22.8965C32.5724 22.8965 35.7759 19.6931 35.7759 15.7414C35.7712 11.7916 32.5705 8.59092 28.6208 8.58619Z" fill="#ECF0F1"/>
<path d="M28.6206 37.2069C27.8303 37.2069 27.1896 36.5662 27.1896 35.7759V24.3276C27.1896 23.5373 27.8303 22.8966 28.6206 22.8966C29.4109 22.8966 30.0516 23.5373 30.0516 24.3276V35.7759C30.0516 36.5662 29.4109 37.2069 28.6206 37.2069Z" fill="#ECF0F1"/>
<path d="M32.9137 32.9138H24.3275C23.5372 32.9138 22.8965 32.2731 22.8965 31.4828C22.8965 30.6924 23.5372 30.0517 24.3275 30.0517H32.9137C33.7041 30.0517 34.3448 30.6924 34.3448 31.4828C34.3448 32.2731 33.7041 32.9138 32.9137 32.9138Z" fill="#ECF0F1"/>
</svg>
