<svg width="720" height="900" viewBox="0 0 720 900" fill="none" xmlns="http://www.w3.org/2000/svg">
<rect width="720" height="900" fill="#D0CDDE"/>
<g clip-path="url(#clip0)">
<path d="M583.362 263.128L479.339 198.131C480.405 189.242 478.919 180.232 475.054 172.156C471.188 164.081 465.103 157.273 457.511 152.528C449.918 147.784 441.131 145.299 432.178 145.365C423.225 145.431 414.476 148.044 406.954 152.9L443.179 175.536L448.202 202.401L421.853 209.664L385.629 187.028C384.562 195.918 386.048 204.927 389.913 213.003C393.779 221.078 399.864 227.887 407.457 232.631C415.049 237.376 423.836 239.86 432.789 239.794C441.742 239.728 450.491 237.115 458.013 232.259L562.033 297.261C560.766 307.919 563.168 318.691 568.843 327.801C574.517 336.912 583.126 343.817 593.25 347.38C603.375 350.943 614.411 350.951 624.54 347.403C634.67 343.855 643.288 336.961 648.976 327.859C654.664 318.757 657.081 307.989 655.83 297.329C654.579 286.669 649.734 276.753 642.093 269.216C634.452 261.678 624.472 256.968 613.796 255.861C603.12 254.755 592.386 257.318 583.362 263.128ZM626.616 290.16L630.368 306.411L621.542 320.536L605.29 324.288L591.157 315.464L587.407 299.221L596.24 285.086L612.491 281.334L626.616 290.16Z" fill="#65727F"/>
<path d="M503.005 229.262C503.168 229.968 503.118 230.706 502.862 231.384C502.605 232.061 502.153 232.648 501.563 233.069C500.974 233.49 500.272 233.726 499.548 233.748C498.824 233.771 498.109 233.578 497.494 233.194L487.908 227.205C487.083 226.69 486.498 225.869 486.279 224.922C486.06 223.975 486.227 222.98 486.742 222.156C487.257 221.332 488.078 220.746 489.025 220.528C489.972 220.309 490.967 220.475 491.791 220.99L501.376 226.98C501.785 227.234 502.139 227.566 502.418 227.958C502.698 228.35 502.897 228.793 503.005 229.262Z" fill="#525D66"/>
<path d="M548.911 257.948C549.073 258.654 549.023 259.393 548.766 260.07C548.509 260.747 548.057 261.333 547.468 261.754C546.878 262.175 546.176 262.411 545.452 262.433C544.728 262.455 544.014 262.262 543.399 261.879L514.274 243.689C513.45 243.175 512.864 242.353 512.645 241.406C512.427 240.459 512.593 239.464 513.108 238.64C513.623 237.816 514.444 237.23 515.391 237.012C516.338 236.793 517.333 236.96 518.157 237.475L547.286 255.676C547.693 255.929 548.046 256.261 548.324 256.65C548.603 257.04 548.802 257.481 548.911 257.948Z" fill="#525D66"/>
</g>
<g clip-path="url(#clip1)">
<path d="M306.703 589.029L302.735 600.089L297.665 614.201L285.066 609.68L272.857 605.293L260.262 600.772L265.332 586.659L269.301 575.599L281.894 580.121L294.109 584.508L306.703 589.029Z" fill="#B3B3B3"/>
<path d="M306.703 589.029L302.734 600.089L296.27 597.768L278.418 591.36L265.332 586.659L269.3 575.599L281.894 580.121L294.109 584.508L306.703 589.029Z" fill="#92949B"/>
<path d="M292.128 568.761L292.095 568.853L269.065 560.33L269.102 560.234C272.771 540.384 288.799 524.504 309.456 521.605L292.128 568.761Z" fill="#92949B"/>
<path d="M272.857 605.294L285.068 609.678L297.664 614.202L306.702 589.029L294.109 584.508L281.894 580.12L269.302 575.599L260.26 600.77L272.857 605.294ZM326.932 614.532L326.895 614.547L281.828 633.504C278.207 635.023 274.919 637.236 272.142 640.013L235.854 676.301L200.091 640.538L238.452 602.177C243.147 597.482 246.305 591.472 247.512 584.941L253.148 554.439L265.407 558.975L269.065 560.33L292.095 568.853L331.005 583.26L348.034 537.381C364.643 556.168 363.962 584.878 345.99 602.85C343.305 605.535 340.447 607.949 337.278 609.748C334.963 611.056 326.932 614.532 326.932 614.532Z" fill="#484B54"/>
<path d="M200.088 640.539L118.406 722.226C108.531 732.101 108.531 748.11 118.406 757.985C123.346 762.925 129.814 765.395 136.288 765.395C142.762 765.395 149.23 762.925 154.17 757.985L235.852 676.303L200.088 640.539ZM141.039 746.611C138.23 749.42 133.679 749.42 130.87 746.611C128.061 743.803 128.061 739.246 130.865 736.443C133.679 733.629 138.23 733.629 141.043 736.443C143.847 739.246 143.847 743.803 141.039 746.611Z" fill="#E8B33F"/>
<path d="M276.251 606.885L269.239 604.312L269.35 604.008L278.272 579.159L285.302 581.682L276.251 606.885Z" fill="#484B54"/>
<path d="M288.69 610.641L281.66 608.116L290.701 582.949L297.732 585.467L288.69 610.641Z" fill="#484B54"/>
<path d="M297.663 617.937C297.237 617.937 296.81 617.865 296.401 617.718L258.998 604.285C258.065 603.95 257.305 603.259 256.882 602.363C256.459 601.467 256.41 600.44 256.745 599.508L265.787 574.337C266.484 572.396 268.624 571.389 270.564 572.085L307.963 585.514C308.896 585.849 309.656 586.541 310.079 587.436C310.502 588.332 310.552 589.359 310.217 590.291L301.179 615.465C300.845 616.398 300.153 617.158 299.258 617.581C298.754 617.818 298.209 617.937 297.663 617.937ZM265.038 598.517L295.411 609.425L301.925 591.282L292.847 588.023H292.847L271.555 580.376L265.038 598.517Z" fill="#66686D"/>
<path d="M118.406 757.985C108.531 748.11 108.531 732.101 118.406 722.226L200.087 640.539L206.417 646.868C206.417 646.869 112.421 733.789 118.406 757.985Z" fill="#D39F37"/>
</g>
<path d="M436.259 465.429L427.481 468.976C425.055 469.956 423.886 472.712 424.866 475.137C425.846 477.563 428.602 478.733 431.027 477.753L439.805 474.207C442.231 473.227 443.4 470.471 442.42 468.045C441.44 465.619 438.684 464.449 436.259 465.429ZM541.587 422.874L532.809 426.42C530.384 427.4 529.214 430.156 530.194 432.582C531.174 435.008 533.93 436.178 536.356 435.198L545.133 431.651C547.55 430.675 550.316 431.846 551.295 434.267L558.387 451.822C559.236 453.922 558.477 456.337 556.579 457.563L513.025 485.743C507.325 489.428 505.039 496.677 507.585 502.978L514.677 520.532C515.657 522.958 518.413 524.128 520.839 523.148C523.265 522.168 524.435 519.412 523.455 516.986L516.362 499.431C515.514 497.331 516.273 494.916 518.17 493.69L561.724 465.509C567.424 461.825 569.71 454.575 567.165 448.275L560.072 430.721C557.139 423.461 548.847 419.941 541.587 422.874Z" fill="url(#paint0_linear)"/>
<path d="M517.293 514.37C510.033 517.304 506.513 525.596 509.446 532.856L523.868 568.55C526.801 575.81 535.093 579.33 542.353 576.397C549.613 573.464 553.133 565.172 550.2 557.912L535.778 522.217C532.845 514.957 524.553 511.437 517.293 514.37ZM525.717 408.866L429.166 447.875C426.74 448.855 425.57 451.611 426.55 454.037L440.736 489.146C441.716 491.572 444.472 492.741 446.897 491.761L543.448 452.752C545.874 451.772 547.044 449.016 546.064 446.591L531.879 411.481C530.898 409.055 528.143 407.886 525.717 408.866Z" fill="url(#paint1_linear)"/>
<path d="M158.149 324.148L171.88 318.045L184.912 288.074L123.627 261.437C122.442 260.916 121.11 260.83 119.867 261.195C118.624 261.56 117.55 262.352 116.835 263.431C116.119 264.511 115.807 265.808 115.955 267.095C116.102 268.382 116.7 269.575 117.641 270.465C121.238 273.82 124.359 279.119 118.604 285.269L84.0083 322.242L137.987 345.7L158.149 324.148ZM116.736 321.008C115.854 320.625 115.077 320.036 114.47 319.291C113.863 318.545 113.445 317.664 113.25 316.722C113.055 315.781 113.089 314.806 113.349 313.88C113.61 312.955 114.089 312.105 114.747 311.404L137.375 287.22C137.913 286.645 138.56 286.181 139.278 285.855C139.996 285.53 140.77 285.349 141.558 285.323C142.346 285.297 143.131 285.426 143.869 285.704C144.606 285.981 145.282 286.401 145.858 286.939C146.433 287.478 146.897 288.125 147.222 288.843C147.548 289.56 147.729 290.335 147.755 291.123C147.781 291.911 147.652 292.696 147.374 293.434C147.097 294.171 146.677 294.847 146.138 295.423L123.51 319.605C122.664 320.509 121.559 321.13 120.346 321.381C119.133 321.632 117.872 321.502 116.736 321.008Z" fill="#FF6E6E"/>
<path d="M315.744 355.144L181.189 296.638L171.88 318.045L158.149 324.148L146.451 336.651L172.463 344.422L180.794 341.958L186.85 348.683L195.565 346.014L201.333 353.047L201.339 353.049L209.949 350.686L215.85 357.383L215.893 357.396L224.364 354.382L230.407 361.734L230.525 361.769L239.132 358.629L245.101 366.123L245.144 366.137L253.472 362.932L259.475 370.417L259.679 370.479L268.187 367.177L273.991 374.754L274.234 374.827L283.466 372.472L288.549 379.104L288.867 379.198L297.42 376.118L303.242 383.494L303.398 383.539L315.744 355.144Z" fill="#65727F"/>
<path d="M201.62 322.293C201.397 321.725 201.347 321.103 201.476 320.507C201.606 319.911 201.91 319.366 202.349 318.942C202.788 318.518 203.343 318.234 203.943 318.125C204.544 318.016 205.163 318.088 205.723 318.331L256.645 340.466C257.017 340.627 257.354 340.86 257.636 341.151C257.918 341.442 258.14 341.786 258.289 342.163C258.438 342.54 258.512 342.943 258.505 343.348C258.499 343.754 258.413 344.154 258.252 344.526C258.091 344.898 257.858 345.235 257.567 345.517C257.275 345.799 256.932 346.021 256.555 346.17C256.178 346.319 255.775 346.393 255.37 346.386C254.964 346.38 254.564 346.294 254.192 346.133L203.26 323.992C202.888 323.831 202.552 323.598 202.271 323.306C201.989 323.014 201.768 322.67 201.62 322.293Z" fill="#525D66"/>
<path d="M267.332 350.865C267.109 350.297 267.059 349.675 267.189 349.079C267.319 348.483 267.623 347.938 268.062 347.514C268.501 347.091 269.056 346.806 269.656 346.697C270.257 346.589 270.876 346.66 271.436 346.903L278.035 349.774C278.414 349.93 278.758 350.161 279.046 350.452C279.335 350.743 279.563 351.089 279.716 351.469C279.87 351.849 279.946 352.256 279.941 352.666C279.936 353.076 279.849 353.48 279.685 353.856C279.522 354.232 279.285 354.572 278.989 354.855C278.693 355.139 278.344 355.361 277.961 355.508C277.578 355.655 277.17 355.724 276.761 355.712C276.351 355.699 275.948 355.605 275.575 355.435L268.974 352.565C268.602 352.404 268.265 352.171 267.983 351.879C267.701 351.587 267.48 351.243 267.332 350.865Z" fill="#525D66"/>
<defs>
<linearGradient id="paint0_linear" x1="520.839" y1="523.148" x2="488.923" y2="444.152" gradientUnits="userSpaceOnUse">
<stop stop-color="#FFE59A"/>
<stop offset="1" stop-color="#FFFFD5"/>
</linearGradient>
<linearGradient id="paint1_linear" x1="537.964" y1="578.17" x2="477.441" y2="428.37" gradientUnits="userSpaceOnUse">
<stop stop-color="#FD5900"/>
<stop offset="1" stop-color="#FFDE00"/>
</linearGradient>
<clipPath id="clip0">
<rect width="268" height="268" fill="white" transform="translate(420.287 408.418) rotate(-103)"/>
</clipPath>
<clipPath id="clip1">
<rect width="249" height="249" fill="white" transform="translate(111 519)"/>
</clipPath>
</defs>
</svg>
