<svg width="457" height="116" viewBox="0 0 457 116" fill="none" xmlns="http://www.w3.org/2000/svg">
<g clip-path="url(#clip0)">
<path d="M106 50.069V91.3103C105.995 93.0603 104.578 94.4775 102.828 94.4828H99.6552V102.414C99.6543 102.993 99.3373 103.526 98.8286 103.804C98.3198 104.081 97.7002 104.059 97.2125 103.746L82.2069 94.4828H45.7242C43.9743 94.4775 42.557 93.0603 42.5518 91.3103V59.5862L77.4483 46.8966H102.828C104.578 46.9018 105.995 48.3191 106 50.069Z" fill="#2FA8CC"/>
<path d="M80.6207 46.8966V59.5862C80.6155 61.3361 79.1982 62.7534 77.4483 62.7586H42.5518V59.5862L77.4483 46.8966H80.6207Z" fill="#3B97D3"/>
<path d="M56.8277 77.0345C59.4558 77.0345 61.5863 74.904 61.5863 72.2759C61.5863 69.6477 59.4558 67.5172 56.8277 67.5172C54.1996 67.5172 52.0691 69.6477 52.0691 72.2759C52.0691 74.904 54.1996 77.0345 56.8277 77.0345Z" fill="#ECF0F1"/>
<path d="M74.276 77.0345C76.9041 77.0345 79.0346 74.904 79.0346 72.2759C79.0346 69.6477 76.9041 67.5172 74.276 67.5172C71.6478 67.5172 69.5173 69.6477 69.5173 72.2759C69.5173 74.904 71.6478 77.0345 74.276 77.0345Z" fill="#ECF0F1"/>
<path d="M91.7242 77.0345C94.3523 77.0345 96.4828 74.904 96.4828 72.2759C96.4828 69.6477 94.3523 67.5172 91.7242 67.5172C89.0961 67.5172 86.9656 69.6477 86.9656 72.2759C86.9656 74.904 89.0961 77.0345 91.7242 77.0345Z" fill="#ECF0F1"/>
<path d="M77.4483 15.1724V56.4138C77.4431 58.1637 76.0258 59.581 74.2759 59.5862H37.7931L22.7828 68.8528C22.2948 69.1635 21.6763 69.1838 21.1689 68.9059C20.6616 68.6279 20.3457 68.0958 20.3448 67.5172V59.5862H17.1724C15.4225 59.581 14.0052 58.1637 14 56.4138V15.1724C14.0052 13.4225 15.4225 12.0052 17.1724 12H74.2759C76.0258 12.0052 77.4431 13.4225 77.4483 15.1724Z" fill="#DE79B1"/>
<path d="M45.7241 40.5517C39.5918 40.5517 34.6206 35.5805 34.6206 29.4483C34.6206 23.316 39.5918 18.3448 45.7241 18.3448C51.8563 18.3448 56.8275 23.316 56.8275 29.4483C56.8205 35.5776 51.8534 40.5447 45.7241 40.5517ZM45.7241 21.5172C41.3439 21.5172 37.793 25.0681 37.793 29.4483C37.793 33.8285 41.3439 37.3793 45.7241 37.3793C50.1042 37.3793 53.6551 33.8285 53.6551 29.4483C53.6498 25.0703 50.1021 21.5225 45.7241 21.5172Z" fill="#ECF0F1"/>
<path d="M45.7241 53.2414C44.8481 53.2414 44.1379 52.5312 44.1379 51.6552V38.9655C44.1379 38.0895 44.8481 37.3793 45.7241 37.3793C46.6002 37.3793 47.3104 38.0895 47.3104 38.9655V51.6552C47.3104 52.5312 46.6002 53.2414 45.7241 53.2414Z" fill="#ECF0F1"/>
<path d="M50.4828 48.4828H40.9656C40.0896 48.4828 39.3794 47.7726 39.3794 46.8966C39.3794 46.0205 40.0896 45.3103 40.9656 45.3103H50.4828C51.3589 45.3103 52.069 46.0205 52.069 46.8966C52.069 47.7726 51.3589 48.4828 50.4828 48.4828Z" fill="#ECF0F1"/>
<path d="M140.097 93.7317C138.406 93.7317 136.926 93.6504 135.658 93.4878C134.422 93.3252 133.073 92.9675 131.609 92.4146C130.146 91.8293 128.894 91.0326 127.853 90.0245C126.845 89.0163 125.821 87.618 124.78 85.8294C123.772 84.0409 122.959 81.9108 122.341 79.4393C121.723 76.9353 121.219 73.8785 120.829 70.2688C120.439 66.6267 120.244 62.4967 120.244 57.8789C120.244 51.6351 120.618 46.2694 121.366 41.7817C122.146 37.294 123.122 33.7982 124.292 31.2942C125.463 28.7902 126.975 26.8227 128.829 25.3919C130.715 23.961 132.504 23.0505 134.195 22.6602C135.918 22.27 137.967 22.0749 140.341 22.0749C143.365 22.0749 145.853 22.5302 147.804 23.4407C147.837 23.4732 147.885 23.522 147.95 23.5871C148.015 23.6196 148.064 23.6684 148.097 23.7334C148.162 23.7659 148.211 23.8472 148.243 23.9773C148.276 24.0748 148.292 24.2049 148.292 24.3675V30.2698C148.292 30.7251 148.178 30.9527 147.95 30.9527C147.918 30.9527 147.788 30.9202 147.56 30.8552C147.365 30.7901 147.072 30.7088 146.682 30.6113C146.292 30.5137 145.869 30.4162 145.414 30.3186C144.959 30.221 144.422 30.1397 143.804 30.0747C143.219 30.0097 142.633 29.9771 142.048 29.9771C140.52 29.9771 139.219 30.156 138.146 30.5137C137.073 30.8389 135.983 31.5706 134.878 32.7088C133.772 33.8144 132.878 35.3591 132.195 37.3428C131.512 39.3265 130.959 42.0419 130.536 45.489C130.113 48.936 129.902 53.066 129.902 57.8789C129.902 62.7893 130.081 66.9681 130.439 70.4152C130.829 73.8622 131.317 76.5939 131.902 78.6101C132.487 80.5938 133.3 82.1385 134.341 83.2441C135.382 84.3498 136.422 85.0652 137.463 85.3904C138.504 85.7156 139.804 85.8782 141.365 85.8782C143.674 85.8782 145.723 85.5693 147.511 84.9514C147.544 84.9514 147.609 85.114 147.707 85.4392C147.837 85.7644 147.902 85.9433 147.902 85.9758V91.5854C147.902 91.6179 147.837 91.7968 147.707 92.122C147.609 92.4146 147.544 92.5772 147.511 92.6098C145.528 93.3577 143.056 93.7317 140.097 93.7317ZM157.365 93C156.942 93 156.617 92.8537 156.389 92.561C156.194 92.2358 156.097 91.5854 156.097 90.6098V25.4894C156.097 23.7659 156.519 22.9041 157.365 22.9041H163.56C164.373 22.9041 164.779 23.7659 164.779 25.4894V50.1718C164.779 50.6596 164.861 50.9035 165.023 50.9035C165.121 50.9035 165.235 50.8059 165.365 50.6108C166.373 48.1068 167.739 46.2694 169.462 45.0987C171.186 43.928 172.925 43.3427 174.681 43.3427C176.275 43.3427 177.657 43.6841 178.828 44.367C179.998 45.0499 181.055 46.1881 181.998 47.7816C182.941 49.375 183.657 51.6189 184.145 54.5131C184.632 57.3748 184.876 60.8707 184.876 65.0007V90.6098C184.876 91.5854 184.763 92.2358 184.535 92.561C184.34 92.8537 184.047 93 183.657 93H177.413C176.99 93 176.681 92.8537 176.486 92.561C176.291 92.2358 176.194 91.5854 176.194 90.6098V63.9763C176.194 58.9683 175.852 55.3912 175.169 53.2449C174.486 51.0661 173.299 49.9767 171.608 49.9767C169.69 49.9767 168.064 51.3262 166.73 54.0253C165.43 56.6919 164.779 60.1227 164.779 64.3178V90.6098C164.779 91.5854 164.682 92.2358 164.487 92.561C164.291 92.8537 163.999 93 163.609 93H157.365ZM203.315 93.5853C200.095 93.5853 197.591 92.5447 195.803 90.4635C194.047 88.3822 193.169 85.3579 193.169 81.3905C193.169 78.4312 193.608 75.8459 194.486 73.6346C195.396 71.4233 196.518 69.7485 197.852 68.6103C199.217 67.4722 200.713 66.5291 202.339 65.7811C203.965 65.0332 205.477 64.5454 206.876 64.3178C208.274 64.0901 209.494 63.8788 210.534 63.6836C211.607 63.456 212.225 63.2284 212.388 63.0007V60.4154C212.388 56.9358 211.998 54.3343 211.217 52.6107C210.469 50.8547 209.087 49.9767 207.071 49.9767C205.38 49.9767 204.079 50.5132 203.169 51.5864C202.291 52.627 201.543 54.2367 200.925 56.4155C200.632 57.3261 200.242 57.7488 199.754 57.6838C196.339 56.8383 194.616 56.2854 194.583 56.0253C194.388 55.9277 194.274 55.5538 194.242 54.9034C194.242 54.253 194.323 53.6514 194.486 53.0985C195.331 49.9116 196.779 47.5052 198.827 45.8792C200.876 44.2207 203.803 43.3914 207.608 43.3914C209.656 43.3914 211.429 43.7329 212.924 44.4158C214.453 45.0662 215.786 46.1556 216.924 47.684C218.063 49.2124 218.908 51.2937 219.461 53.9278C220.046 56.5293 220.339 59.7163 220.339 63.4885V90.561C220.339 92.2195 219.997 93.0488 219.315 93.0488H217.754C217.168 93.0488 216.648 92.3333 216.193 90.9025C216.128 90.5773 215.802 89.5204 215.217 87.7318C214.664 85.9433 214.355 84.8701 214.29 84.5124C214.258 84.4148 214.209 84.3498 214.144 84.3173C214.111 84.2848 214.063 84.2848 213.998 84.3173C213.933 84.3498 213.9 84.4148 213.9 84.5124C213.022 87.5042 211.754 89.7643 210.095 91.2927C208.469 92.8211 206.209 93.5853 203.315 93.5853ZM205.022 87.3416C207.299 87.3416 209.12 85.8457 210.485 82.8539C211.884 79.8621 212.583 76.285 212.583 72.1225C212.583 69.651 212.437 68.4152 212.144 68.4152C211.559 68.4152 211.071 68.5128 210.681 68.7079C207.168 69.5859 204.583 71.0168 202.925 73.0005C201.299 74.9842 200.486 77.5695 200.486 80.7564C200.486 85.1465 201.998 87.3416 205.022 87.3416ZM230.973 93C230.615 93 230.322 92.7073 230.095 92.122C229.867 91.5041 229.753 90.6911 229.753 89.683V47.4889C229.753 46.4483 229.851 45.6028 230.046 44.9524C230.274 44.2695 230.566 43.928 230.924 43.928H232.631C233.444 43.928 234.03 44.9036 234.387 46.8548L235.265 53.44C235.363 53.8302 235.493 54.0253 235.656 54.0253C235.753 54.0253 235.851 53.814 235.948 53.3912C237.607 46.6922 240.712 43.3427 245.265 43.3427C249.428 43.3427 252.322 46.432 253.948 52.6107C254.045 52.8709 254.143 53.001 254.241 53.001C254.436 53.001 254.549 52.8709 254.582 52.6107C255.395 49.5539 256.663 47.245 258.387 45.6841C260.143 44.1231 261.931 43.3427 263.752 43.3427C265.021 43.3427 266.126 43.489 267.069 43.7817C268.013 44.0744 268.939 44.6597 269.85 45.5377C270.793 46.3832 271.557 47.5377 272.143 49.0011C272.728 50.4644 273.199 52.4319 273.557 54.9034C273.915 57.3748 274.094 60.2853 274.094 63.6349V89.683C274.094 91.8943 273.687 93 272.874 93H267.216C266.403 93 265.996 91.8943 265.996 89.683V62.7568C265.996 57.8139 265.671 54.4481 265.021 52.6595C264.37 50.8709 263.281 49.9767 261.753 49.9767C260.094 49.9767 258.712 51.1311 257.606 53.44C256.533 55.7163 255.997 59.3423 255.997 64.3178V89.683C255.997 90.6911 255.883 91.5041 255.655 92.122C255.427 92.7073 255.135 93 254.777 93H249.167C248.322 93 247.899 91.8943 247.899 89.683V63.391C247.899 58.2854 247.558 54.7733 246.875 52.8546C246.192 50.936 245.119 49.9767 243.655 49.9767C242.355 49.9767 241.249 50.6758 240.338 52.0742C239.46 53.44 238.826 55.2123 238.436 57.3911C238.078 59.5374 237.899 62.0251 237.899 64.8543V89.683C237.899 90.6911 237.786 91.5041 237.558 92.122C237.33 92.7073 237.038 93 236.68 93H230.973ZM292.483 93.5853C289.264 93.5853 286.76 92.5447 284.971 90.4635C283.215 88.3822 282.337 85.3579 282.337 81.3905C282.337 78.4312 282.776 75.8459 283.654 73.6346C284.565 71.4233 285.687 69.7485 287.02 68.6103C288.386 67.4722 289.882 66.5291 291.508 65.7811C293.134 65.0332 294.646 64.5454 296.044 64.3178C297.443 64.0901 298.662 63.8788 299.703 63.6836C300.776 63.456 301.394 63.2284 301.556 63.0007V60.4154C301.556 56.9358 301.166 54.3343 300.386 52.6107C299.638 50.8547 298.256 49.9767 296.239 49.9767C294.548 49.9767 293.248 50.5132 292.337 51.5864C291.459 52.627 290.711 54.2367 290.093 56.4155C289.801 57.3261 289.41 57.7488 288.923 57.6838C285.508 56.8383 283.785 56.2854 283.752 56.0253C283.557 55.9277 283.443 55.5538 283.411 54.9034C283.411 54.253 283.492 53.6514 283.654 53.0985C284.5 49.9116 285.947 47.5052 287.996 45.8792C290.045 44.2207 292.971 43.3914 296.776 43.3914C298.825 43.3914 300.597 43.7329 302.093 44.4158C303.621 45.0662 304.955 46.1556 306.093 47.684C307.231 49.2124 308.077 51.2937 308.629 53.9278C309.215 56.5293 309.507 59.7163 309.507 63.4885V90.561C309.507 92.2195 309.166 93.0488 308.483 93.0488H306.922C306.337 93.0488 305.816 92.3333 305.361 90.9025C305.296 90.5773 304.971 89.5204 304.386 87.7318C303.833 85.9433 303.524 84.8701 303.459 84.5124C303.426 84.4148 303.378 84.3498 303.312 84.3173C303.28 84.2848 303.231 84.2848 303.166 84.3173C303.101 84.3498 303.069 84.4148 303.069 84.5124C302.191 87.5042 300.922 89.7643 299.264 91.2927C297.638 92.8211 295.378 93.5853 292.483 93.5853ZM294.191 87.3416C296.467 87.3416 298.288 85.8457 299.654 82.8539C301.052 79.8621 301.752 76.285 301.752 72.1225C301.752 69.651 301.605 68.4152 301.313 68.4152C300.727 68.4152 300.239 68.5128 299.849 68.7079C296.337 69.5859 293.752 71.0168 292.093 73.0005C290.467 74.9842 289.654 77.5695 289.654 80.7564C289.654 85.1465 291.166 87.3416 294.191 87.3416Z" fill="#2FA8CC"/>
<path d="M333.507 93C333.084 93 332.775 92.8862 332.58 92.6585C332.385 92.3984 332.287 91.8293 332.287 90.9513V24.9041C332.287 24.0586 332.385 23.5058 332.58 23.2456C332.775 22.9854 333.084 22.8554 333.507 22.8554H359.165C359.425 22.8554 359.636 22.8879 359.799 22.9529C359.962 23.018 360.092 23.1968 360.189 23.4895C360.319 23.7822 360.384 24.2212 360.384 24.8065V28.6601C360.384 29.4731 360.287 30.0097 360.092 30.2698C359.896 30.4975 359.588 30.6113 359.165 30.6113H342.482C342.092 30.6113 341.897 31.1478 341.897 32.221V51.9278C341.897 52.2205 341.946 52.5132 342.043 52.8059C342.173 53.0985 342.287 53.2449 342.385 53.2449H355.799C356.612 53.2449 357.018 53.9928 357.018 55.4887V59.2447C357.018 60.7406 356.612 61.4886 355.799 61.4886H342.433C342.303 61.4886 342.173 61.6512 342.043 61.9764C341.946 62.3016 341.897 62.6267 341.897 62.9519V85.2441H359.311C359.604 85.2441 359.831 85.2766 359.994 85.3416C360.157 85.4067 360.287 85.5855 360.384 85.8782C360.514 86.1709 360.579 86.6099 360.579 87.1953V91.0488C360.579 91.8618 360.466 92.3984 360.238 92.6585C360.043 92.8862 359.734 93 359.311 93H333.507ZM369.896 93C369.083 93 368.677 92.122 368.677 90.3659V24.6114C368.677 22.6602 369.083 21.6847 369.896 21.6847H375.359C376.172 21.6847 376.579 22.6602 376.579 24.6114V90.3659C376.579 92.122 376.172 93 375.359 93H369.896ZM395.018 93.5853C391.798 93.5853 389.294 92.5447 387.506 90.4635C385.749 88.3822 384.871 85.3579 384.871 81.3905C384.871 78.4312 385.31 75.8459 386.189 73.6346C387.099 71.4233 388.221 69.7485 389.554 68.6103C390.92 67.4722 392.416 66.5291 394.042 65.7811C395.668 65.0332 397.18 64.5454 398.578 64.3178C399.977 64.0901 401.196 63.8788 402.237 63.6836C403.31 63.456 403.928 63.2284 404.091 63.0007V60.4154C404.091 56.9358 403.7 54.3343 402.92 52.6107C402.172 50.8547 400.79 49.9767 398.774 49.9767C397.083 49.9767 395.782 50.5132 394.871 51.5864C393.993 52.627 393.245 54.2367 392.627 56.4155C392.335 57.3261 391.944 57.7488 391.457 57.6838C388.042 56.8383 386.319 56.2854 386.286 56.0253C386.091 55.9277 385.977 55.5538 385.945 54.9034C385.945 54.253 386.026 53.6514 386.189 53.0985C387.034 49.9116 388.481 47.5052 390.53 45.8792C392.579 44.2207 395.505 43.3914 399.31 43.3914C401.359 43.3914 403.131 43.7329 404.627 44.4158C406.155 45.0662 407.489 46.1556 408.627 47.684C409.765 49.2124 410.611 51.2937 411.164 53.9278C411.749 56.5293 412.042 59.7163 412.042 63.4885V90.561C412.042 92.2195 411.7 93.0488 411.017 93.0488H409.456C408.871 93.0488 408.351 92.3333 407.895 90.9025C407.83 90.5773 407.505 89.5204 406.92 87.7318C406.367 85.9433 406.058 84.8701 405.993 84.5124C405.96 84.4148 405.912 84.3498 405.847 84.3173C405.814 84.2848 405.765 84.2848 405.7 84.3173C405.635 84.3498 405.603 84.4148 405.603 84.5124C404.725 87.5042 403.456 89.7643 401.798 91.2927C400.172 92.8211 397.912 93.5853 395.018 93.5853ZM396.725 87.3416C399.001 87.3416 400.822 85.8457 402.188 82.8539C403.586 79.8621 404.286 76.285 404.286 72.1225C404.286 69.651 404.139 68.4152 403.847 68.4152C403.261 68.4152 402.773 68.5128 402.383 68.7079C398.871 69.5859 396.286 71.0168 394.627 73.0005C393.001 74.9842 392.188 77.5695 392.188 80.7564C392.188 85.1465 393.701 87.3416 396.725 87.3416ZM430.48 93.5366C428.236 93.5366 426.041 93 423.895 91.9268C421.781 90.8537 419.927 89.3578 418.334 87.4391L421.212 81.8295C424.171 85.2116 427.163 86.9026 430.187 86.9026C432.041 86.9026 433.439 86.2684 434.382 85.0002C435.358 83.6994 435.846 82.1222 435.846 80.2686C435.846 78.48 435.342 77.0166 434.334 75.8785C433.358 74.7078 431.586 73.2281 429.017 71.4395C427.488 70.3664 426.253 69.4396 425.309 68.6591C424.399 67.8461 423.505 66.8543 422.627 65.6836C421.749 64.5129 421.098 63.1958 420.675 61.7325C420.285 60.2366 420.09 58.513 420.09 56.5619C420.09 52.7571 421.147 49.6027 423.261 47.0987C425.375 44.5947 428.139 43.3427 431.553 43.3427C435.683 43.3427 439.228 44.9849 442.187 48.2694L439.163 54.0741C436.854 51.5376 434.529 50.2693 432.187 50.2693C430.659 50.2693 429.472 50.8222 428.626 51.9278C427.781 53.001 427.358 54.3505 427.358 55.9765C427.358 57.7976 427.862 59.3423 428.87 60.6105C429.878 61.8463 431.407 63.1145 433.456 64.4153C434.919 65.3584 436.155 66.2689 437.163 67.147C438.203 68.025 439.195 69.0981 440.138 70.3664C441.114 71.6021 441.846 73.0493 442.333 74.7078C442.821 76.3662 443.065 78.2361 443.065 80.3174C443.065 84.4148 441.959 87.6505 439.748 90.0245C437.569 92.3659 434.48 93.5366 430.48 93.5366Z" fill="#DE79B1"/>
</g>
<defs>
<clipPath id="clip0">
<rect width="457" height="116" fill="white"/>
</clipPath>
</defs>
</svg>
